<svg width="24" height="24" viewBox="0 0 24 24" fill="none" xmlns="http://www.w3.org/2000/svg">
<circle cx="12" cy="12" r="9" stroke="#565656" stroke-width="2"/>
<path d="M11.0696 16.5V9.95455H12.885V16.5H11.0696ZM11.9816 9.1108C11.7117 9.1108 11.4802 9.02131 11.287 8.84233C11.0966 8.66051 11.0015 8.44318 11.0015 8.19034C11.0015 7.94034 11.0966 7.72585 11.287 7.54688C11.4802 7.36506 11.7117 7.27415 11.9816 7.27415C12.2515 7.27415 12.4816 7.36506 12.6719 7.54688C12.8651 7.72585 12.9617 7.94034 12.9617 8.19034C12.9617 8.44318 12.8651 8.66051 12.6719 8.84233C12.4816 9.02131 12.2515 9.1108 11.9816 9.1108Z" fill="#565656"/>
</svg>
