<svg width="120" height="120" viewBox="0 0 120 120" fill="none" xmlns="http://www.w3.org/2000/svg">
<rect width="120" height="120" fill="white"/>
<path d="M37.5 35C37.5 36.3807 36.3807 37.5 35 37.5C33.6193 37.5 32.5 36.3807 32.5 35C32.5 33.6193 33.6193 32.5 35 32.5C36.3807 32.5 37.5 33.6193 37.5 35Z" fill="#9F9F9F"/>
<path fill-rule="evenodd" clip-rule="evenodd" d="M20 15C17.2386 15 15 17.2386 15 20V64.1837C15.9159 63.2406 16.8927 62.3171 17.922 61.4267C22.3536 57.5936 27.9766 54.188 34.3071 52.5196C40.6902 50.8373 47.7788 50.9324 54.901 54.1264C59.7108 56.2833 64.3905 59.7875 68.8178 64.8752C74.2512 60.1235 80.51 57.4515 87.082 57.3618C93.3275 57.2766 99.4488 59.5288 105 63.9295V20C105 17.2386 102.761 15 100 15H20ZM45 35C45 40.5228 40.5228 45 35 45C29.4772 45 25 40.5228 25 35C25 29.4772 29.4772 25 35 25C40.5228 25 45 29.4772 45 35Z" fill="#9F9F9F"/>
<path d="M74.9247 73.1938C74.4179 72.3849 73.9065 71.6013 73.3907 70.8423C77.8154 66.8401 82.5767 64.924 87.1844 64.8611C92.5466 64.7879 98.3494 67.2161 103.831 73.0258C96.3504 83.0302 81.1284 83.095 74.9247 73.1938Z" fill="#9F9F9F"/>
<path d="M105 82.4198C93.8957 91.0617 76.7382 90.2139 68.5691 77.1759C63.0077 68.2997 57.2326 63.3916 51.8321 60.9698C46.4663 58.5635 41.1591 58.4698 36.2185 59.772C31.2253 61.0879 26.5966 63.8399 22.8285 67.0992C19.0367 70.3789 16.3334 73.9832 15.046 76.7614L15 76.7401V100C15 102.761 17.2386 105 20 105H100C102.761 105 105 102.761 105 100V82.4198Z" fill="#9F9F9F"/>
</svg>
