<svg width="24" height="24" viewBox="0 0 24 24" fill="none" xmlns="http://www.w3.org/2000/svg">
<path fill-rule="evenodd" clip-rule="evenodd" d="M5.07427 8C4.49394 8 4.03549 8.49235 4.07681 9.07121L4.93345 21.0712C4.97081 21.5945 5.40626 22 5.93091 22H18.0684C18.5931 22 19.0286 21.5944 19.0659 21.071L19.9201 9.071C19.9613 8.49222 19.5028 8 18.9226 8H5.07427ZM7.83121 11.0146C7.41801 11.0435 7.10646 11.4019 7.13536 11.8151L7.65853 19.2968C7.68742 19.71 8.04581 20.0216 8.45902 19.9927C8.87222 19.9638 9.18377 19.6054 9.15488 19.1922L8.6317 11.7105C8.60281 11.2973 8.24442 10.9857 7.83121 11.0146ZM11.2498 11.75C11.2498 11.3358 11.5855 11 11.9998 11C12.414 11 12.7498 11.3358 12.7498 11.75V19.25C12.7498 19.6642 12.414 20 11.9998 20C11.5855 20 11.2498 19.6642 11.2498 19.25V11.75ZM16.1683 11.0146C15.7551 10.9857 15.3967 11.2973 15.3678 11.7105L14.8446 19.1922C14.8157 19.6054 15.1273 19.9638 15.5405 19.9927C15.9537 20.0216 16.3121 19.71 16.341 19.2968L16.8641 11.8151C16.893 11.4019 16.5815 11.0435 16.1683 11.0146Z" fill="#E2445C"/>
<path fill-rule="evenodd" clip-rule="evenodd" d="M12.8232 1.9366C13.9235 1.85965 14.8782 2.68809 14.9575 3.78775L14.9578 3.79221L17.9505 3.58293C19.0524 3.50588 20.0081 4.33667 20.0851 5.43855C20.1236 5.98949 19.7083 6.46734 19.1573 6.50587L5.19142 7.48246C4.64048 7.52098 4.16262 7.10559 4.1241 6.55465C4.04704 5.45277 4.87783 4.49706 5.97971 4.42001L8.97241 4.21075L8.9721 4.20628C8.8976 3.10629 9.72763 2.15305 10.828 2.07611L12.8232 1.9366ZM10.8978 3.07367L12.8929 2.93416C13.4424 2.89574 13.9191 3.30879 13.9599 3.8575L9.96967 4.13653C9.93369 3.58747 10.3483 3.11209 10.8978 3.07367Z" fill="#E2445C"/>
</svg>
