<svg width="24" height="24" viewBox="0 0 24 24" fill="none" xmlns="http://www.w3.org/2000/svg">
<path fill-rule="evenodd" clip-rule="evenodd" d="M5.07451 8C4.49419 8 4.03573 8.49235 4.07705 9.07121L4.93369 21.0712C4.97105 21.5945 5.4065 22 5.93115 22H18.0686C18.5934 22 19.0289 21.5944 19.0661 21.071L19.9203 9.071C19.9615 8.49222 19.5031 8 18.9228 8H5.07451ZM7.83146 11.0146C7.41825 11.0435 7.10671 11.4019 7.1356 11.8151L7.65877 19.2968C7.68767 19.71 8.04606 20.0216 8.45926 19.9927C8.87247 19.9638 9.18401 19.6054 9.15512 19.1922L8.63195 11.7105C8.60305 11.2973 8.24466 10.9857 7.83146 11.0146ZM11.25 11.75C11.25 11.3358 11.5858 11 12 11C12.4142 11 12.75 11.3358 12.75 11.75V19.25C12.75 19.6642 12.4142 20 12 20C11.5858 20 11.25 19.6642 11.25 19.25V11.75ZM16.1685 11.0146C15.7553 10.9857 15.3969 11.2973 15.368 11.7105L14.8449 19.1922C14.816 19.6054 15.1275 19.9638 15.5407 19.9927C15.9539 20.0216 16.3123 19.71 16.3412 19.2968L16.8644 11.8151C16.8933 11.4019 16.5817 11.0435 16.1685 11.0146Z" fill="#565656"/>
<path fill-rule="evenodd" clip-rule="evenodd" d="M12.8232 1.9366C13.9235 1.85965 14.8782 2.68809 14.9575 3.78775L14.9578 3.79221L17.9505 3.58293C19.0524 3.50588 20.0081 4.33667 20.0851 5.43855C20.1236 5.98949 19.7083 6.46734 19.1573 6.50587L5.19142 7.48246C4.64048 7.52098 4.16262 7.10559 4.1241 6.55465C4.04704 5.45277 4.87783 4.49706 5.97971 4.42001L8.97241 4.21075L8.9721 4.20628C8.8976 3.10629 9.72763 2.15305 10.828 2.07611L12.8232 1.9366ZM10.8978 3.07367L12.8929 2.93416C13.4424 2.89574 13.9191 3.30879 13.9599 3.8575L9.96967 4.13653C9.93369 3.58747 10.3483 3.11209 10.8978 3.07367Z" fill="#565656"/>
</svg>
