<svg width="18" height="18" viewBox="0 0 18 18" fill="none" xmlns="http://www.w3.org/2000/svg">
<mask id="path-1-inside-1_40_127" fill="white">
<path fill-rule="evenodd" clip-rule="evenodd" d="M3.75 0C4.16421 0 4.5 0.335786 4.5 0.75V1H13.5V0.75C13.5 0.335786 13.8358 0 14.25 0C14.6642 0 15 0.335786 15 0.75V1H16C17.1046 1 18 1.89543 18 3V16C18 17.1046 17.1046 18 16 18H2C0.89543 18 0 17.1046 0 16V3C0 1.89543 0.895431 1 2 1H3V0.75C3 0.335786 3.33579 0 3.75 0ZM3 6H15V7.5H3V6ZM5.25 10.5V9H3.75V10.5H5.25ZM6.75 9H8.25V10.5H6.75V9ZM11.25 9H9.75V10.5H11.25V9ZM12.75 10.5V9H14.25V10.5H12.75ZM5.25 13.5V12H3.75V13.5H5.25ZM6.75 12H8.25V13.5H6.75V12ZM11.25 12H9.75V13.5H11.25V12ZM12.75 13.5V12H14.25V13.5H12.75Z"/>
</mask>
<path fill-rule="evenodd" clip-rule="evenodd" d="M3.75 0C4.16421 0 4.5 0.335786 4.5 0.75V1H13.5V0.75C13.5 0.335786 13.8358 0 14.25 0C14.6642 0 15 0.335786 15 0.75V1H16C17.1046 1 18 1.89543 18 3V16C18 17.1046 17.1046 18 16 18H2C0.89543 18 0 17.1046 0 16V3C0 1.89543 0.895431 1 2 1H3V0.75C3 0.335786 3.33579 0 3.75 0ZM3 6H15V7.5H3V6ZM5.25 10.5V9H3.75V10.5H5.25ZM6.75 9H8.25V10.5H6.75V9ZM11.25 9H9.75V10.5H11.25V9ZM12.75 10.5V9H14.25V10.5H12.75ZM5.25 13.5V12H3.75V13.5H5.25ZM6.75 12H8.25V13.5H6.75V12ZM11.25 12H9.75V13.5H11.25V12ZM12.75 13.5V12H14.25V13.5H12.75Z" fill="#9F9F9F"/>
<path d="M4.5 1H3C3 1.82843 3.67157 2.5 4.5 2.5V1ZM13.5 1V2.5C14.3284 2.5 15 1.82843 15 1L13.5 1ZM15 1H13.5C13.5 1.82843 14.1716 2.5 15 2.5V1ZM3 1V2.5C3.82843 2.5 4.5 1.82843 4.5 1L3 1ZM15 6H16.5C16.5 5.17157 15.8284 4.5 15 4.5V6ZM3 6V4.5C2.17157 4.5 1.5 5.17157 1.5 6H3ZM15 7.5V9C15.8284 9 16.5 8.32843 16.5 7.5H15ZM3 7.5H1.5C1.5 8.32843 2.17157 9 3 9L3 7.5ZM5.25 9H6.75C6.75 8.17157 6.07843 7.5 5.25 7.5V9ZM5.25 10.5V12C6.07843 12 6.75 11.3284 6.75 10.5H5.25ZM3.75 9V7.5C2.92157 7.5 2.25 8.17157 2.25 9H3.75ZM3.75 10.5H2.25C2.25 11.3284 2.92157 12 3.75 12L3.75 10.5ZM8.25 9H9.75C9.75 8.17157 9.07843 7.5 8.25 7.5V9ZM6.75 9V7.5C5.92157 7.5 5.25 8.17157 5.25 9H6.75ZM8.25 10.5V12C9.07843 12 9.75 11.3284 9.75 10.5H8.25ZM6.75 10.5H5.25C5.25 11.3284 5.92157 12 6.75 12V10.5ZM9.75 9V7.5C8.92157 7.5 8.25 8.17157 8.25 9H9.75ZM11.25 9H12.75C12.75 8.17157 12.0784 7.5 11.25 7.5V9ZM9.75 10.5H8.25C8.25 11.3284 8.92157 12 9.75 12V10.5ZM11.25 10.5V12C12.0784 12 12.75 11.3284 12.75 10.5H11.25ZM12.75 9V7.5C11.9216 7.5 11.25 8.17157 11.25 9H12.75ZM12.75 10.5H11.25C11.25 11.3284 11.9216 12 12.75 12V10.5ZM14.25 9H15.75C15.75 8.17157 15.0784 7.5 14.25 7.5V9ZM14.25 10.5V12C15.0784 12 15.75 11.3284 15.75 10.5H14.25ZM5.25 12H6.75C6.75 11.1716 6.07843 10.5 5.25 10.5V12ZM5.25 13.5V15C6.07843 15 6.75 14.3284 6.75 13.5H5.25ZM3.75 12V10.5C2.92157 10.5 2.25 11.1716 2.25 12H3.75ZM3.75 13.5H2.25C2.25 14.3284 2.92157 15 3.75 15L3.75 13.5ZM8.25 12H9.75C9.75 11.1716 9.07843 10.5 8.25 10.5V12ZM6.75 12V10.5C5.92157 10.5 5.25 11.1716 5.25 12H6.75ZM8.25 13.5V15C9.07843 15 9.75 14.3284 9.75 13.5H8.25ZM6.75 13.5H5.25C5.25 14.3284 5.92157 15 6.75 15V13.5ZM9.75 12V10.5C8.92157 10.5 8.25 11.1716 8.25 12H9.75ZM11.25 12H12.75C12.75 11.1716 12.0784 10.5 11.25 10.5V12ZM9.75 13.5H8.25C8.25 14.3284 8.92157 15 9.75 15V13.5ZM11.25 13.5V15C12.0784 15 12.75 14.3284 12.75 13.5H11.25ZM12.75 12V10.5C11.9216 10.5 11.25 11.1716 11.25 12H12.75ZM12.75 13.5H11.25C11.25 14.3284 11.9216 15 12.75 15V13.5ZM14.25 12H15.75C15.75 11.1716 15.0784 10.5 14.25 10.5V12ZM14.25 13.5V15C15.0784 15 15.75 14.3284 15.75 13.5H14.25ZM6 0.75C6 -0.492641 4.99264 -1.5 3.75 -1.5V1.5C3.33579 1.5 3 1.16421 3 0.75H6ZM6 1V0.75H3V1H6ZM13.5 -0.5H4.5V2.5H13.5V-0.5ZM12 0.75V1H15V0.75H12ZM14.25 -1.5C13.0074 -1.5 12 -0.492641 12 0.75H15C15 1.16421 14.6642 1.5 14.25 1.5V-1.5ZM16.5 0.75C16.5 -0.492641 15.4926 -1.5 14.25 -1.5V1.5C13.8358 1.5 13.5 1.16421 13.5 0.75H16.5ZM16.5 1V0.75H13.5V1H16.5ZM16 -0.5H15V2.5H16V-0.5ZM19.5 3C19.5 1.067 17.933 -0.5 16 -0.5V2.5C16.2761 2.5 16.5 2.72386 16.5 3H19.5ZM19.5 16V3H16.5V16H19.5ZM16 19.5C17.933 19.5 19.5 17.933 19.5 16H16.5C16.5 16.2761 16.2761 16.5 16 16.5V19.5ZM2 19.5H16V16.5H2V19.5ZM-1.5 16C-1.5 17.933 0.0670036 19.5 2 19.5V16.5C1.72386 16.5 1.5 16.2761 1.5 16H-1.5ZM-1.5 3V16H1.5V3H-1.5ZM2 -0.5C0.0670036 -0.5 -1.5 1.067 -1.5 3H1.5C1.5 2.72386 1.72386 2.5 2 2.5V-0.5ZM3 -0.5H2V2.5H3V-0.5ZM1.5 0.75V1H4.5V0.75H1.5ZM3.75 -1.5C2.50736 -1.5 1.5 -0.492641 1.5 0.75H4.5C4.5 1.16421 4.16421 1.5 3.75 1.5V-1.5ZM15 4.5H3V7.5H15V4.5ZM16.5 7.5V6H13.5V7.5H16.5ZM3 9H15V6H3V9ZM1.5 6V7.5H4.5V6H1.5ZM3.75 9V10.5H6.75V9H3.75ZM3.75 10.5H5.25V7.5H3.75V10.5ZM5.25 10.5V9H2.25V10.5H5.25ZM5.25 9H3.75V12H5.25V9ZM8.25 7.5H6.75V10.5H8.25V7.5ZM9.75 10.5V9H6.75V10.5H9.75ZM6.75 12H8.25V9H6.75V12ZM5.25 9V10.5H8.25V9H5.25ZM9.75 10.5H11.25V7.5H9.75V10.5ZM11.25 10.5V9H8.25V10.5H11.25ZM11.25 9H9.75V12H11.25V9ZM9.75 9V10.5H12.75V9H9.75ZM11.25 9V10.5H14.25V9H11.25ZM14.25 7.5H12.75V10.5H14.25V7.5ZM15.75 10.5V9H12.75V10.5H15.75ZM12.75 12H14.25V9H12.75V12ZM3.75 12V13.5H6.75V12H3.75ZM3.75 13.5H5.25V10.5H3.75V13.5ZM5.25 13.5V12H2.25V13.5H5.25ZM5.25 12H3.75V15H5.25V12ZM8.25 10.5H6.75V13.5H8.25V10.5ZM9.75 13.5V12H6.75V13.5H9.75ZM6.75 15H8.25V12H6.75V15ZM5.25 12V13.5H8.25V12H5.25ZM9.75 13.5H11.25V10.5H9.75V13.5ZM11.25 13.5V12H8.25V13.5H11.25ZM11.25 12H9.75V15H11.25V12ZM9.75 12V13.5H12.75V12H9.75ZM11.25 12V13.5H14.25V12H11.25ZM14.25 10.5H12.75V13.5H14.25V10.5ZM15.75 13.5V12H12.75V13.5H15.75ZM12.75 15H14.25V12H12.75V15Z" fill="#9F9F9F" mask="url(#path-1-inside-1_40_127)"/>
</svg>
