<?xml version="1.0" encoding="utf-8"?>
<!-- Generator: Adobe Illustrator 24.3.0, SVG Export Plug-In . SVG Version: 6.00 Build 0)  -->
<svg version="1.1" id="Layer_1" xmlns="http://www.w3.org/2000/svg" xmlns:xlink="http://www.w3.org/1999/xlink" x="0px" y="0px"
	 viewBox="0 0 24 24" style="enable-background:new 0 0 24 24;" xml:space="preserve">
<style type="text/css">
	.st0{fill-rule:evenodd;clip-rule:evenodd;fill:#9F9F9F;}
	.st1{fill-rule:evenodd;clip-rule:evenodd;fill:#FFFFFF;filter:url(#Adobe_OpacityMaskFilter);}
	.st2{mask:url(#path-1-inside-1_2179_9065_1_);fill:#9F9F9F;}
</style>
<path class="st0" d="M6.8,3c0.4,0,0.8,0.3,0.8,0.8V4h9V3.8c0-0.4,0.3-0.8,0.8-0.8S18,3.3,18,3.8V4h1c1.1,0,2,0.9,2,2v13
	c0,1.1-0.9,2-2,2H5c-1.1,0-2-0.9-2-2V6c0-1.1,0.9-2,2-2h1V3.8C6,3.3,6.3,3,6.8,3z M6,9h12v1.5H6V9z M8.2,13.5V12H6.8v1.5H8.2z
	 M9.8,12h1.5v1.5H9.8V12z M14.2,12h-1.5v1.5h1.5V12z M15.8,13.5V12h1.5v1.5H15.8z M8.2,16.5V15H6.8v1.5H8.2z M9.8,15h1.5v1.5H9.8V15
	z M14.2,15h-1.5v1.5h1.5V15z M15.8,16.5V15h1.5v1.5H15.8z"/>
<defs>
	<filter id="Adobe_OpacityMaskFilter" filterUnits="userSpaceOnUse" x="1.5" y="1.5" width="21" height="21">
		<feColorMatrix  type="matrix" values="1 0 0 0 0  0 1 0 0 0  0 0 1 0 0  0 0 0 1 0"/>
	</filter>
</defs>
<mask maskUnits="userSpaceOnUse" x="1.5" y="1.5" width="21" height="21" id="path-1-inside-1_2179_9065_1_">
	<path class="st1" d="M6.8,3c0.4,0,0.8,0.3,0.8,0.8V4h9V3.8c0-0.4,0.3-0.8,0.8-0.8S18,3.3,18,3.8V4h1c1.1,0,2,0.9,2,2v13
		c0,1.1-0.9,2-2,2H5c-1.1,0-2-0.9-2-2V6c0-1.1,0.9-2,2-2h1V3.8C6,3.3,6.3,3,6.8,3z M6,9h12v1.5H6V9z M8.2,13.5V12H6.8v1.5H8.2z
		 M9.8,12h1.5v1.5H9.8V12z M14.2,12h-1.5v1.5h1.5V12z M15.8,13.5V12h1.5v1.5H15.8z M8.2,16.5V15H6.8v1.5H8.2z M9.8,15h1.5v1.5H9.8
		V15z M14.2,15h-1.5v1.5h1.5V15z M15.8,16.5V15h1.5v1.5H15.8z"/>
</mask>
<path class="st2" d="M7.5,4H6c0,0.8,0.7,1.5,1.5,1.5V4z M16.5,4v1.5C17.3,5.5,18,4.8,18,4H16.5z M18,4h-1.5c0,0.8,0.7,1.5,1.5,1.5V4
	z M6,4v1.5c0.8,0,1.5-0.7,1.5-1.5H6z M18,9h1.5c0-0.8-0.7-1.5-1.5-1.5V9z M6,9V7.5C5.2,7.5,4.5,8.2,4.5,9H6z M18,10.5V12
	c0.8,0,1.5-0.7,1.5-1.5H18z M6,10.5H4.5C4.5,11.3,5.2,12,6,12V10.5z M8.2,12h1.5c0-0.8-0.7-1.5-1.5-1.5V12z M8.2,13.5V15
	c0.8,0,1.5-0.7,1.5-1.5H8.2z M6.8,12v-1.5c-0.8,0-1.5,0.7-1.5,1.5H6.8z M6.8,13.5H5.2c0,0.8,0.7,1.5,1.5,1.5V13.5z M11.2,12h1.5
	c0-0.8-0.7-1.5-1.5-1.5V12z M9.8,12v-1.5c-0.8,0-1.5,0.7-1.5,1.5H9.8z M11.2,13.5V15c0.8,0,1.5-0.7,1.5-1.5H11.2z M9.8,13.5H8.2
	c0,0.8,0.7,1.5,1.5,1.5V13.5z M12.8,12v-1.5c-0.8,0-1.5,0.7-1.5,1.5H12.8z M14.2,12h1.5c0-0.8-0.7-1.5-1.5-1.5V12z M12.8,13.5h-1.5
	c0,0.8,0.7,1.5,1.5,1.5V13.5z M14.2,13.5V15c0.8,0,1.5-0.7,1.5-1.5H14.2z M15.8,12v-1.5c-0.8,0-1.5,0.7-1.5,1.5H15.8z M15.8,13.5
	h-1.5c0,0.8,0.7,1.5,1.5,1.5V13.5z M17.2,12h1.5c0-0.8-0.7-1.5-1.5-1.5V12z M17.2,13.5V15c0.8,0,1.5-0.7,1.5-1.5H17.2z M8.2,15h1.5
	c0-0.8-0.7-1.5-1.5-1.5V15z M8.2,16.5V18c0.8,0,1.5-0.7,1.5-1.5H8.2z M6.8,15v-1.5c-0.8,0-1.5,0.7-1.5,1.5H6.8z M6.8,16.5H5.2
	c0,0.8,0.7,1.5,1.5,1.5V16.5z M11.2,15h1.5c0-0.8-0.7-1.5-1.5-1.5V15z M9.8,15v-1.5c-0.8,0-1.5,0.7-1.5,1.5H9.8z M11.2,16.5V18
	c0.8,0,1.5-0.7,1.5-1.5H11.2z M9.8,16.5H8.2c0,0.8,0.7,1.5,1.5,1.5V16.5z M12.8,15v-1.5c-0.8,0-1.5,0.7-1.5,1.5H12.8z M14.2,15h1.5
	c0-0.8-0.7-1.5-1.5-1.5V15z M12.8,16.5h-1.5c0,0.8,0.7,1.5,1.5,1.5V16.5z M14.2,16.5V18c0.8,0,1.5-0.7,1.5-1.5H14.2z M15.8,15v-1.5
	c-0.8,0-1.5,0.7-1.5,1.5H15.8z M15.8,16.5h-1.5c0,0.8,0.7,1.5,1.5,1.5V16.5z M17.2,15h1.5c0-0.8-0.7-1.5-1.5-1.5V15z M17.2,16.5V18
	c0.8,0,1.5-0.7,1.5-1.5H17.2z M9,3.8c0-1.2-1-2.2-2.2-2.2v3C6.3,4.5,6,4.2,6,3.8H9z M9,4V3.8H6V4H9z M16.5,2.5h-9v3h9V2.5z M15,3.8
	V4h3V3.8H15z M17.2,1.5c-1.2,0-2.2,1-2.2,2.2h3c0,0.4-0.3,0.8-0.8,0.8V1.5z M19.5,3.8c0-1.2-1-2.2-2.2-2.2v3c-0.4,0-0.8-0.3-0.8-0.8
	H19.5z M19.5,4V3.8h-3V4H19.5z M19,2.5h-1v3h1V2.5z M22.5,6c0-1.9-1.6-3.5-3.5-3.5v3c0.3,0,0.5,0.2,0.5,0.5H22.5z M22.5,19V6h-3v13
	H22.5z M19,22.5c1.9,0,3.5-1.6,3.5-3.5h-3c0,0.3-0.2,0.5-0.5,0.5V22.5z M5,22.5h14v-3H5V22.5z M1.5,19c0,1.9,1.6,3.5,3.5,3.5v-3
	c-0.3,0-0.5-0.2-0.5-0.5H1.5z M1.5,6v13h3V6H1.5z M5,2.5C3.1,2.5,1.5,4.1,1.5,6h3c0-0.3,0.2-0.5,0.5-0.5V2.5z M6,2.5H5v3h1V2.5z
	 M4.5,3.8V4h3V3.8H4.5z M6.8,1.5c-1.2,0-2.2,1-2.2,2.2h3c0,0.4-0.3,0.8-0.8,0.8V1.5z M18,7.5H6v3h12V7.5z M19.5,10.5V9h-3v1.5H19.5z
	 M6,12h12V9H6V12z M4.5,9v1.5h3V9H4.5z M6.8,12v1.5h3V12H6.8z M6.8,13.5h1.5v-3H6.8V13.5z M8.2,13.5V12h-3v1.5H8.2z M8.2,12H6.8v3
	h1.5V12z M11.2,10.5H9.8v3h1.5V10.5z M12.8,13.5V12h-3v1.5H12.8z M9.8,15h1.5v-3H9.8V15z M8.2,12v1.5h3V12H8.2z M12.8,13.5h1.5v-3
	h-1.5V13.5z M14.2,13.5V12h-3v1.5H14.2z M14.2,12h-1.5v3h1.5V12z M12.8,12v1.5h3V12H12.8z M14.2,12v1.5h3V12H14.2z M17.2,10.5h-1.5
	v3h1.5V10.5z M18.8,13.5V12h-3v1.5H18.8z M15.8,15h1.5v-3h-1.5V15z M6.8,15v1.5h3V15H6.8z M6.8,16.5h1.5v-3H6.8V16.5z M8.2,16.5V15
	h-3v1.5H8.2z M8.2,15H6.8v3h1.5V15z M11.2,13.5H9.8v3h1.5V13.5z M12.8,16.5V15h-3v1.5H12.8z M9.8,18h1.5v-3H9.8V18z M8.2,15v1.5h3
	V15H8.2z M12.8,16.5h1.5v-3h-1.5V16.5z M14.2,16.5V15h-3v1.5H14.2z M14.2,15h-1.5v3h1.5V15z M12.8,15v1.5h3V15H12.8z M14.2,15v1.5h3
	V15H14.2z M17.2,13.5h-1.5v3h1.5V13.5z M18.8,16.5V15h-3v1.5H18.8z M15.8,18h1.5v-3h-1.5V18z"/>
</svg>
