<svg width="25" height="25" viewBox="0 0 25 25" fill="none" xmlns="http://www.w3.org/2000/svg">
<path d="M20.4557 8.25794C20.7486 8.55083 20.7486 9.02571 20.4557 9.3186L13.0311 16.7432C12.7382 17.0361 12.2634 17.0361 11.9705 16.7432C11.6776 16.4503 11.6776 15.9755 11.9705 15.6826L19.3951 8.25794C19.688 7.96505 20.1629 7.96505 20.4557 8.25794Z" fill="#181818"/>
<path d="M4.54584 8.25794C4.83873 7.96505 5.31361 7.96505 5.6065 8.25794L13.0311 15.6826C13.324 15.9755 13.324 16.4503 13.0311 16.7432C12.7382 17.0361 12.2634 17.0361 11.9705 16.7432L4.54584 9.3186C4.25295 9.02571 4.25295 8.55083 4.54584 8.25794Z" fill="#181818"/>
</svg>
