<svg width="24" height="24" viewBox="0 0 24 24" fill="none" xmlns="http://www.w3.org/2000/svg">
<path d="M4.22156 7.75747C3.83103 8.14799 3.83103 8.78116 4.22156 9.17168L11.2926 16.2428C11.6832 16.6333 12.3163 16.6333 12.7068 16.2428C13.0974 15.8522 13.0974 15.2191 12.7068 14.8285L5.63577 7.75747C5.24525 7.36694 4.61208 7.36694 4.22156 7.75747Z" fill="#565656"/>
<path d="M11.2926 14.8285C10.9021 15.2191 10.9021 15.8522 11.2926 16.2428C11.6832 16.6333 12.3163 16.6333 12.7068 16.2428L19.7779 9.17168C20.1684 8.78116 20.1684 8.14799 19.7779 7.75747C19.3874 7.36694 18.7542 7.36694 18.3637 7.75747L11.2926 14.8285Z" fill="#565656"/>
</svg>
