<svg width="20" height="21" viewBox="0 0 20 21" fill="none" xmlns="http://www.w3.org/2000/svg">
<rect width="20" height="20" transform="translate(0 0.5)" fill="white"/>
<path d="M3.51813 6.96415C3.19269 7.28959 3.19269 7.81723 3.51813 8.14266L9.41069 14.0352C9.73612 14.3607 10.2638 14.3607 10.5892 14.0352C10.9146 13.7098 10.9146 13.1821 10.5892 12.8567L4.69664 6.96415C4.3712 6.63871 3.84356 6.63871 3.51813 6.96415Z" fill="#9F9F9F"/>
<path d="M9.41069 12.8567C9.08525 13.1821 9.08525 13.7098 9.41069 14.0352C9.73612 14.3607 10.2638 14.3607 10.5892 14.0352L16.4818 8.14266C16.8072 7.81723 16.8072 7.28959 16.4818 6.96415C16.1563 6.63871 15.6287 6.63871 15.3032 6.96415L9.41069 12.8567Z" fill="#9F9F9F"/>
</svg>
