<svg width="20" height="20" viewBox="0 0 20 20" fill="none" xmlns="http://www.w3.org/2000/svg">
<path fill-rule="evenodd" clip-rule="evenodd" d="M20 10C20 15.5228 15.5228 20 10 20C4.47715 20 0 15.5228 0 10C0 4.47715 4.47715 0 10 0C15.5228 0 20 4.47715 20 10ZM4.34362 15.657C4.05073 15.3641 4.05073 14.8892 4.34362 14.5963L8.93981 10.0001L4.34361 5.40392C4.05072 5.11103 4.05072 4.63616 4.34361 4.34326C4.63651 4.05037 5.11138 4.05037 5.40427 4.34326L10.0005 8.93946L14.5967 4.34326C14.8896 4.05037 15.3644 4.05037 15.6573 4.34326C15.9502 4.63616 15.9502 5.11103 15.6573 5.40392L11.0611 10.0001L15.6573 14.5963C15.9502 14.8892 15.9502 15.3641 15.6573 15.657C15.3644 15.9499 14.8896 15.9499 14.5967 15.657L10.0005 11.0608L5.40428 15.657C5.11139 15.9499 4.63652 15.9499 4.34362 15.657Z" fill="#E2445C"/>
</svg>
