<svg width="24" height="24" viewBox="0 0 24 24" fill="none" xmlns="http://www.w3.org/2000/svg">
<rect width="24" height="24" rx="12" fill="#9F9F9F"/>
<rect x="1.90918" y="1.90918" width="20.1818" height="20.1818" rx="10.0909" fill="url(#paint0_linear_328_8622)"/>
<rect x="2.30688" y="2.30664" width="19.3864" height="19.3864" rx="9.69318" fill="url(#paint1_linear_328_8622)" stroke="white" stroke-width="0.25"/>
<path d="M9.8416 9.57573C10.5933 11.5682 12.3063 13.0392 14.3138 13.3025C15.2675 13.4307 16.2362 13.2929 17.1244 12.9026C17.3116 12.8205 17.5013 13.0114 17.4442 13.2178C16.7244 15.8174 14.3656 17.6733 11.6344 17.4331C8.96263 17.1986 6.77754 14.8725 6.56373 12.0373C6.39151 9.75229 7.4485 7.71724 9.1063 6.58706C9.1445 6.56044 9.18903 6.54584 9.23472 6.54496C9.28041 6.54409 9.32541 6.55696 9.36449 6.5821C9.40357 6.60723 9.43514 6.6436 9.45554 6.68699C9.47594 6.73038 9.48434 6.77902 9.47976 6.82726C9.38383 7.76108 9.50817 8.70555 9.8416 9.57573Z" fill="#181818"/>
<path d="M14.4427 12.2724L14.726 11.8193L15.2647 11.8467C15.3659 11.8608 15.469 11.8438 15.5601 11.7983C15.6512 11.7527 15.726 11.6806 15.7742 11.5918C15.8162 11.5 15.8285 11.3976 15.8093 11.2986C15.7901 11.1997 15.7405 11.109 15.6671 11.0389L15.3382 10.6607L15.4914 10.1753C15.527 10.0889 15.5358 9.99405 15.5167 9.90274C15.4976 9.81142 15.4514 9.72776 15.3841 9.66232C15.3167 9.59689 15.2312 9.55264 15.1383 9.53517C15.0455 9.5177 14.9495 9.52779 14.8624 9.56417L14.3996 9.71439L13.9313 9.38167C13.8572 9.3229 13.7677 9.28606 13.6732 9.27541C13.5788 9.26475 13.4832 9.28073 13.3975 9.32149C13.3149 9.36788 13.2473 9.43639 13.2026 9.51907C13.1578 9.60176 13.1377 9.69526 13.1445 9.78876L13.1559 10.3578L12.768 10.6479C12.6882 10.6977 12.6251 10.7696 12.5867 10.8546C12.5483 10.9397 12.5363 11.034 12.5523 11.1258C12.5682 11.2175 12.6113 11.3026 12.6762 11.3702C12.7411 11.4378 12.8248 11.485 12.9168 11.5057L13.4099 11.6574L13.5374 12.1393C13.5542 12.2388 13.6017 12.3307 13.6734 12.4025C13.7452 12.4743 13.8377 12.5225 13.9382 12.5405C13.9593 12.5435 13.9805 12.545 14.0017 12.5449C14.0933 12.5429 14.1827 12.5166 14.2603 12.4686C14.3379 12.4206 14.401 12.3528 14.4427 12.2724Z" fill="#181818"/>
<path d="M16.181 8.78845L15.9921 9.0905C15.9643 9.14412 15.9223 9.18932 15.8705 9.22131C15.8187 9.25329 15.7592 9.27087 15.6981 9.27219C15.6839 9.27223 15.6698 9.27125 15.6558 9.26926C15.5887 9.25726 15.5271 9.22513 15.4792 9.17725C15.4314 9.12937 15.3997 9.06809 15.3886 9.00178L15.3036 8.68048L14.9748 8.57936C14.9135 8.56555 14.8577 8.53412 14.8144 8.48905C14.7712 8.44398 14.7424 8.38728 14.7318 8.3261C14.7212 8.26493 14.7292 8.20203 14.7548 8.14533C14.7804 8.08864 14.8224 8.04069 14.8756 8.00755L15.1342 7.81411L15.1266 7.43475C15.1221 7.37242 15.1355 7.31009 15.1653 7.25496C15.1952 7.19984 15.2402 7.15417 15.2953 7.12324C15.3524 7.09607 15.4161 7.08542 15.4791 7.09252C15.5421 7.09962 15.6017 7.12418 15.6511 7.16336L15.9633 7.38517L16.2719 7.28503C16.3299 7.26077 16.3939 7.25404 16.4559 7.26569C16.5178 7.27734 16.5748 7.30684 16.6197 7.35046C16.6646 7.39408 16.6953 7.44986 16.7081 7.51074C16.7208 7.57162 16.715 7.63485 16.6913 7.69244L16.5891 8.01603L16.8083 8.26817C16.8573 8.31488 16.8904 8.37535 16.9032 8.44133C16.916 8.5073 16.9078 8.57555 16.8798 8.63677C16.8476 8.69598 16.7978 8.74403 16.737 8.77442C16.6763 8.80481 16.6076 8.81609 16.5401 8.80672L16.181 8.78845Z" fill="#181818"/>
<path d="M11.8577 8.59047L11.9993 8.36393L12.2687 8.37763C12.3193 8.38466 12.3708 8.3762 12.4164 8.35341C12.462 8.33062 12.4993 8.29458 12.5234 8.25017C12.5445 8.20426 12.5506 8.15307 12.541 8.10359C12.5314 8.05411 12.5066 8.00876 12.4699 7.97372L12.3054 7.78461L12.3821 7.54193C12.3998 7.49873 12.4042 7.45131 12.3947 7.40565C12.3851 7.35999 12.3621 7.31816 12.3284 7.28544C12.2947 7.25273 12.2519 7.2306 12.2055 7.22186C12.1591 7.21313 12.1111 7.21818 12.0676 7.23637L11.8361 7.31147L11.602 7.14511C11.5649 7.11573 11.5202 7.09731 11.473 7.09198C11.4257 7.08666 11.3779 7.09464 11.3351 7.11502C11.2938 7.13822 11.26 7.17247 11.2376 7.21382C11.2152 7.25516 11.2052 7.30191 11.2086 7.34866L11.2143 7.63318L11.0203 7.77825C10.9804 7.80311 10.9489 7.83907 10.9297 7.88159C10.9105 7.92411 10.9045 7.97129 10.9125 8.01717C10.9204 8.06305 10.942 8.10558 10.9744 8.13938C11.0069 8.17319 11.0487 8.19676 11.0947 8.20711L11.3413 8.28295L11.405 8.52393C11.4134 8.57366 11.4372 8.61962 11.473 8.65553C11.5089 8.69144 11.5552 8.71554 11.6055 8.72454C11.616 8.72603 11.6266 8.72677 11.6372 8.72674C11.683 8.72575 11.7277 8.71256 11.7665 8.68857C11.8053 8.66458 11.8368 8.63069 11.8577 8.59047Z" fill="#181818"/>
<defs>
<linearGradient id="paint0_linear_328_8622" x1="6.96286" y1="20.7531" x2="14.5523" y2="4.89733" gradientUnits="userSpaceOnUse">
<stop stop-color="#E9E9E9"/>
<stop offset="1" stop-color="white"/>
</linearGradient>
<linearGradient id="paint1_linear_328_8622" x1="6.0603" y1="19.8298" x2="21.8182" y2="-1.64628" gradientUnits="userSpaceOnUse">
<stop stop-color="white"/>
<stop offset="1" stop-color="#D9D9D9"/>
</linearGradient>
</defs>
</svg>
