<svg width="241" height="261" viewBox="0 0 241 261" fill="none" xmlns="http://www.w3.org/2000/svg">
<ellipse cx="55.3322" cy="248.405" rx="27.0043" ry="3.66846" transform="rotate(-4.14721 55.3322 248.405)" fill="#F3F3F3"/>
<ellipse cx="162.523" cy="251.567" rx="21.0784" ry="3.66846" transform="rotate(-1.44077 162.523 251.567)" fill="#F3F3F3"/>
<ellipse cx="206.262" cy="243.57" rx="25.5531" ry="3.66846" transform="rotate(-1.44077 206.262 243.57)" fill="#F3F3F3"/>
<circle opacity="0.1" cx="120.5" cy="120.082" r="120" fill="#9F9F9F"/>
<path fill-rule="evenodd" clip-rule="evenodd" d="M50.6753 97.4863C44.8919 97.4863 40.323 102.393 40.7348 108.162L49.2719 227.752C49.6442 232.967 53.9838 237.008 59.2124 237.008H180.172C185.402 237.008 189.742 232.966 190.113 227.75L198.626 108.16C199.036 102.392 194.468 97.4863 188.685 97.4863H50.6753ZM78.1505 127.529C74.0326 127.817 70.9278 131.389 71.2157 135.507L76.4296 210.068C76.7175 214.186 80.2892 217.291 84.4071 217.003C88.525 216.715 91.6298 213.144 91.3419 209.026L86.128 134.464C85.8401 130.346 82.2684 127.241 78.1505 127.529ZM112.219 134.858C112.219 130.73 115.565 127.384 119.693 127.384C123.821 127.384 127.168 130.73 127.168 134.858V209.602C127.168 213.73 123.821 217.076 119.693 217.076C115.565 217.076 112.219 213.73 112.219 209.602V134.858ZM161.236 127.529C157.118 127.241 153.547 130.346 153.259 134.464L148.045 209.026C147.757 213.144 150.862 216.715 154.98 217.003C159.097 217.291 162.669 214.186 162.957 210.068L168.171 135.507C168.459 131.389 165.354 127.817 161.236 127.529Z" fill="#9E847A"/>
<path fill-rule="evenodd" clip-rule="evenodd" d="M127.894 37.0572C138.861 36.2903 148.374 44.5464 149.165 55.5054L149.168 55.5499L178.992 53.4643C189.974 52.6964 199.498 60.9759 200.266 71.957C200.65 77.4476 196.51 82.2098 191.019 82.5937L51.8379 92.3262C46.3474 92.7102 41.5852 88.5704 41.2012 83.0799C40.4334 72.0988 48.7128 62.5743 59.6939 61.8064L89.5186 59.721L89.5155 59.6765C88.7731 48.7142 97.045 39.2144 108.011 38.4475L127.894 37.0572ZM108.707 48.3891L128.59 46.9987C134.065 46.6158 138.817 50.7322 139.223 56.2006L99.4571 58.9813C99.0986 53.5095 103.231 48.772 108.707 48.3891Z" fill="#9E847A"/>
<path d="M17.7872 210.507C17.7872 210.507 31.8719 204.345 35.6132 208.747C39.3545 213.148 47.7172 215.129 47.7172 215.129L54.9796 202.805L74.7862 212.048L85.5698 226.793L78.5274 244.178C78.5274 244.178 64.2227 243.958 57.4004 246.819C50.5782 249.68 32.7522 249.9 32.7522 249.9L24.6095 234.275C24.6095 234.275 14.266 219.09 17.7872 210.507Z" fill="#FFF4D0"/>
<path d="M47.7173 215.129C49.0718 216.329 50.373 217.574 51.6481 218.84C52.9341 220.098 54.172 221.395 55.4144 222.689C56.6303 224.005 57.8788 225.294 59.0579 226.641C60.2474 227.979 61.4583 229.299 62.6076 230.671L60.0724 231.925C59.4974 229.532 58.9298 227.138 58.4213 224.73C57.9018 222.325 57.4576 219.903 56.9919 217.485C56.1443 212.632 55.3538 207.765 54.9797 202.805C56.7762 207.444 58.1563 212.177 59.4794 216.923C60.099 219.306 60.7399 221.683 61.3058 224.078C61.8825 226.47 62.4003 228.876 62.9106 231.283L62.915 231.304C62.9824 231.621 62.9414 231.953 62.7987 232.244C62.656 232.536 62.4197 232.772 62.1275 232.914C61.8353 233.056 61.5041 233.096 61.1865 233.027C60.8689 232.959 60.5833 232.787 60.3752 232.537C59.2289 231.163 58.1441 229.737 57.038 228.329C55.9214 226.93 54.8741 225.473 53.7943 224.044C52.7411 222.592 51.6833 221.143 50.6736 219.655C49.6531 218.176 48.6584 216.675 47.7173 215.129Z" fill="#C0AFA8"/>
<path d="M74.7865 212.047C73.9464 213.859 73.0013 215.599 72.0591 217.341C71.0923 219.067 70.1192 220.788 69.0926 222.473C68.0958 224.178 67.0232 225.832 65.9769 227.504C64.9223 229.169 63.8085 230.795 62.7272 232.443L61.1991 230.138C63.2035 229.727 65.2155 229.353 67.2308 228.996C69.2542 228.68 71.2657 228.303 73.299 228.037C75.3256 227.736 77.3632 227.491 79.404 227.261C81.4519 227.067 83.4968 226.858 85.5701 226.792C83.6304 227.527 81.6623 228.12 79.6971 228.728C77.7249 229.301 75.7494 229.857 73.7629 230.358C71.7832 230.893 69.7816 231.319 67.792 231.805C65.7942 232.249 63.7931 232.677 61.7845 233.068L61.753 233.074C61.4624 233.131 61.1616 233.099 60.8891 232.983C60.6167 232.867 60.3851 232.672 60.2242 232.424C60.0633 232.176 59.9804 231.885 59.9861 231.589C59.9918 231.293 60.086 231.005 60.2564 230.763C61.3909 229.152 62.4928 227.518 63.6541 225.924C64.8235 224.337 65.9667 222.731 67.1857 221.177C68.3749 219.602 69.6176 218.064 70.8666 216.531C72.1402 215.014 73.4109 213.495 74.7865 212.047Z" fill="#C0AFA8"/>
<path d="M78.5275 244.178C76.9027 243.408 75.3659 242.519 73.8204 241.642C72.2948 240.738 70.7827 239.815 69.3014 238.85C66.3205 236.947 63.4355 234.913 60.6036 232.807L62.77 232.379C61.0581 235.169 59.284 237.921 57.3806 240.595C56.4492 241.944 55.4606 243.258 54.4675 244.57C53.4506 245.868 52.4339 247.165 51.313 248.399C51.8885 246.834 52.5681 245.333 53.2477 243.831C53.951 242.344 54.6587 240.859 55.4237 239.409C56.9131 236.484 58.5317 233.638 60.2127 230.829C60.313 230.661 60.4454 230.515 60.6022 230.399C60.7591 230.282 60.9373 230.198 61.1268 230.15C61.3163 230.103 61.5132 230.093 61.7065 230.121C61.8998 230.15 62.0855 230.216 62.2532 230.317L62.3665 230.392L62.3793 230.401C65.226 232.487 68.0197 234.644 70.7175 236.932C72.0755 238.063 73.4027 239.237 74.7165 240.428C76.0104 241.646 77.3129 242.853 78.5275 244.178Z" fill="#C0AFA8"/>
<path d="M17.7871 210.508C25.3902 213.363 32.8063 216.605 40.1953 219.904C43.8728 221.589 47.5586 223.256 51.2024 225.01C54.8657 226.724 58.4948 228.509 62.1222 230.297L62.1333 230.303C62.3643 230.417 62.5609 230.59 62.7028 230.805C62.8447 231.02 62.9268 231.269 62.9408 231.526C62.9548 231.783 62.9001 232.039 62.7824 232.268C62.6646 232.497 62.4881 232.691 62.2708 232.829C59.8755 234.353 57.4301 235.799 55.0094 237.283C52.593 238.774 50.1242 240.183 47.6842 241.636C45.2202 243.053 42.7671 244.486 40.2741 245.856C37.7927 247.245 35.2853 248.594 32.7521 249.901C35.0066 248.156 37.2891 246.455 39.5997 244.797C41.8965 243.119 44.2332 241.502 46.5591 239.869C48.9089 238.274 51.2301 236.633 53.6035 235.075C55.9727 233.509 58.317 231.905 60.7117 230.38L60.8602 232.912C57.2036 231.184 53.5487 229.453 49.928 227.651C46.2878 225.889 42.6895 224.04 39.0831 222.208C31.904 218.475 24.7521 214.685 17.7871 210.508Z" fill="#C0AFA8"/>
<path d="M23.7104 232.869C26.2813 231.898 28.7539 230.684 31.0948 229.244C33.2738 227.959 35.0887 226.138 36.3676 223.955C37.4756 221.72 37.8744 219.2 37.5107 216.732C37.1375 214.015 36.5021 211.341 35.6133 208.746C37.5896 210.894 39.0331 213.477 39.827 216.286C40.7344 219.305 40.4429 222.558 39.0131 225.368C37.4707 228.061 35.0686 230.158 32.1921 231.323C29.5219 232.486 26.619 233.015 23.7104 232.869ZM46.2034 224.224C46.0405 226.274 45.6876 228.305 45.1492 230.291C44.6368 232.244 44.0193 234.168 43.2994 236.055C42.5842 237.943 41.7657 239.791 40.8477 241.589C39.929 243.43 38.8393 245.181 37.593 246.818C37.7522 244.767 38.1039 242.735 38.6434 240.749C39.1552 238.796 39.774 236.872 40.4969 234.987C41.2152 233.099 42.0349 231.252 42.9525 229.454C43.8719 227.613 44.9602 225.862 46.2034 224.224Z" fill="#C0AFA8"/>
<path d="M17.7872 210.507C17.7872 210.507 31.8719 204.345 35.6132 208.746C39.3545 213.148 47.7172 215.129 47.7172 215.129L54.9825 202.953L74.7862 212.048L85.5698 226.793L78.5274 244.178C78.5274 244.178 64.2227 243.958 57.4004 246.819C50.5782 249.68 32.7522 249.9 32.7522 249.9L24.6095 234.275C24.6095 234.275 14.266 219.09 17.7872 210.507Z" fill="#FFF4D0"/>
<path d="M47.7173 215.129C49.0718 216.329 50.373 217.574 51.6481 218.84C52.9341 220.098 54.172 221.395 55.4144 222.689C56.6303 224.005 57.8788 225.294 59.0579 226.641C60.2474 227.979 61.4583 229.299 62.6076 230.671L60.0724 231.925C59.4974 229.532 58.9298 227.138 58.4213 224.73C57.9018 222.325 57.4576 219.903 56.9919 217.485C56.1443 212.632 55.3538 207.765 54.9797 202.805C56.7762 207.444 58.1563 212.177 59.4794 216.923C60.099 219.306 60.7399 221.683 61.3058 224.078C61.8825 226.47 62.4003 228.876 62.9106 231.283L62.915 231.304C62.9824 231.621 62.9414 231.953 62.7987 232.244C62.656 232.536 62.4197 232.772 62.1275 232.914C61.8353 233.056 61.5041 233.096 61.1865 233.027C60.8689 232.959 60.5833 232.787 60.3752 232.537C59.2289 231.163 58.1441 229.737 57.038 228.329C55.9214 226.93 54.8741 225.473 53.7943 224.044C52.7411 222.592 51.6833 221.143 50.6736 219.655C49.6531 218.176 48.6584 216.675 47.7173 215.129Z" fill="#C0AFA8"/>
<path d="M74.7865 212.047C73.9464 213.859 73.0013 215.599 72.0591 217.341C71.0923 219.067 70.1192 220.788 69.0926 222.473C68.0958 224.178 67.0232 225.832 65.9769 227.504C64.9223 229.169 63.8085 230.795 62.7272 232.443L61.1991 230.138C63.2035 229.727 65.2155 229.353 67.2308 228.996C69.2542 228.68 71.2657 228.303 73.299 228.037C75.3256 227.736 77.3632 227.491 79.404 227.261C81.4519 227.067 83.4968 226.858 85.5701 226.792C83.6304 227.527 81.6623 228.12 79.6971 228.728C77.7249 229.301 75.7494 229.857 73.7629 230.358C71.7832 230.893 69.7816 231.319 67.792 231.805C65.7942 232.249 63.7931 232.677 61.7845 233.068L61.753 233.074C61.4624 233.131 61.1616 233.099 60.8891 232.983C60.6167 232.867 60.3851 232.672 60.2242 232.424C60.0633 232.176 59.9804 231.885 59.9861 231.589C59.9918 231.293 60.086 231.005 60.2564 230.763C61.3909 229.152 62.4928 227.518 63.6541 225.924C64.8235 224.337 65.9667 222.731 67.1857 221.177C68.3749 219.602 69.6176 218.064 70.8666 216.531C72.1402 215.014 73.4109 213.495 74.7865 212.047Z" fill="#C0AFA8"/>
<path d="M78.5275 244.178C76.9027 243.408 75.3659 242.519 73.8204 241.642C72.2948 240.738 70.7827 239.815 69.3014 238.85C66.3205 236.947 63.4355 234.913 60.6036 232.807L62.77 232.379C61.0581 235.169 59.284 237.921 57.3806 240.595C56.4492 241.944 55.4606 243.258 54.4675 244.57C53.4506 245.868 52.4339 247.165 51.313 248.399C51.8885 246.834 52.5681 245.333 53.2477 243.831C53.951 242.344 54.6587 240.859 55.4237 239.409C56.9131 236.484 58.5317 233.638 60.2127 230.829C60.313 230.661 60.4454 230.515 60.6022 230.399C60.7591 230.282 60.9373 230.198 61.1268 230.15C61.3163 230.103 61.5132 230.093 61.7065 230.121C61.8998 230.15 62.0855 230.216 62.2532 230.317L62.3665 230.392L62.3793 230.401C65.226 232.487 68.0197 234.644 70.7175 236.932C72.0755 238.063 73.4027 239.237 74.7165 240.428C76.0104 241.646 77.3129 242.853 78.5275 244.178Z" fill="#C0AFA8"/>
<path d="M17.7871 210.508C25.3902 213.363 32.8063 216.605 40.1953 219.904C43.8728 221.589 47.5586 223.256 51.2024 225.01C54.8657 226.724 58.4948 228.509 62.1222 230.297L62.1333 230.303C62.3643 230.417 62.5609 230.59 62.7028 230.805C62.8447 231.02 62.9268 231.269 62.9408 231.526C62.9548 231.783 62.9001 232.039 62.7824 232.268C62.6646 232.497 62.4881 232.691 62.2708 232.829C59.8755 234.353 57.4301 235.799 55.0094 237.283C52.593 238.774 50.1242 240.183 47.6842 241.636C45.2202 243.053 42.7671 244.486 40.2741 245.856C37.7927 247.245 35.2853 248.594 32.7521 249.901C35.0066 248.156 37.2891 246.455 39.5997 244.797C41.8965 243.119 44.2332 241.502 46.5591 239.869C48.9089 238.274 51.2301 236.633 53.6035 235.075C55.9727 233.509 58.317 231.905 60.7117 230.38L60.8602 232.912C57.2036 231.184 53.5487 229.453 49.928 227.651C46.2878 225.889 42.6895 224.04 39.0831 222.208C31.904 218.475 24.7521 214.685 17.7871 210.508Z" fill="#C0AFA8"/>
<path d="M23.7104 232.869C26.2813 231.898 28.7539 230.684 31.0948 229.244C33.2738 227.959 35.0887 226.138 36.3676 223.955C37.4756 221.72 37.8744 219.2 37.5107 216.732C37.1375 214.015 36.5021 211.341 35.6133 208.746C37.5896 210.894 39.0331 213.477 39.827 216.286C40.7344 219.305 40.4429 222.558 39.0131 225.368C37.4707 228.061 35.0686 230.158 32.1921 231.323C29.5219 232.486 26.619 233.015 23.7104 232.869ZM46.2034 224.224C46.0405 226.274 45.6876 228.305 45.1492 230.291C44.6368 232.244 44.0193 234.168 43.2994 236.055C42.5842 237.943 41.7657 239.791 40.8477 241.589C39.929 243.43 38.8393 245.181 37.593 246.818C37.7522 244.767 38.1039 242.735 38.6434 240.749C39.1552 238.796 39.774 236.872 40.4969 234.987C41.2152 233.099 42.0349 231.252 42.9525 229.454C43.8719 227.613 44.9602 225.862 46.2034 224.224Z" fill="#C0AFA8"/>
<path d="M167.929 209.336C167.929 209.336 176.636 214.619 173.331 218.237C170.027 221.855 169.95 227.06 169.95 227.06L182.949 226.428L178.532 240.426L167.092 251.61L149.432 254.216C149.432 254.216 146.616 246.475 142.513 243.871C138.411 241.266 134.442 231.801 134.442 231.801L147.259 221.708C147.259 221.708 159.201 210.599 167.929 209.336Z" fill="#FFF4D0"/>
<path d="M169.95 227.06C169.12 228.225 168.236 229.379 167.327 230.526C166.429 231.676 165.483 232.815 164.542 233.955C163.575 235.089 162.639 236.231 161.635 237.356C160.642 238.484 159.669 239.617 158.636 240.735L156.934 239.838C159.038 238.652 161.146 237.47 163.278 236.314C165.406 235.154 167.566 234.027 169.716 232.891C174.052 230.657 178.413 228.448 182.949 226.428C179.012 229.092 174.901 231.567 170.765 234.017C168.679 235.223 166.602 236.438 164.494 237.62C162.391 238.806 160.262 239.966 158.13 241.122L158.112 241.132C157.831 241.285 157.514 241.384 157.212 241.415C156.911 241.445 156.642 241.405 156.448 241.301C156.254 241.197 156.147 241.034 156.143 240.839C156.14 240.644 156.24 240.427 156.428 240.224C157.465 239.106 158.562 238.003 159.638 236.894C160.704 235.783 161.838 234.687 162.94 233.584C164.068 232.488 165.192 231.39 166.364 230.303C167.524 229.214 168.711 228.131 169.95 227.06Z" fill="#C0AFA8"/>
<path d="M178.533 240.426C176.67 240.641 174.851 240.773 173.031 240.908C171.222 241.023 169.415 241.133 167.631 241.202C165.834 241.293 164.069 241.325 162.293 241.378C160.521 241.425 158.773 241.424 157.012 241.45L158.833 239.786C159.639 240.709 160.412 241.649 161.17 242.597C161.891 243.565 162.666 244.504 163.343 245.495C164.051 246.47 164.71 247.471 165.354 248.48C165.967 249.506 166.593 250.524 167.093 251.61C165.999 250.841 165.032 250.005 164.051 249.175C163.102 248.329 162.167 247.475 161.282 246.595C160.366 245.731 159.547 244.815 158.675 243.928C157.84 243.021 157.019 242.107 156.231 241.174L156.219 241.16C156.105 241.025 156.071 240.852 156.121 240.664C156.172 240.475 156.304 240.28 156.501 240.102C156.698 239.925 156.951 239.774 157.228 239.669C157.504 239.563 157.792 239.508 158.053 239.51C159.792 239.527 161.544 239.518 163.272 239.555C164.996 239.599 166.731 239.622 168.434 239.705C170.15 239.764 171.843 239.866 173.534 239.972C175.214 240.097 176.895 240.221 178.533 240.426Z" fill="#C0AFA8"/>
<path d="M149.431 254.215C149.804 253.063 150.307 251.913 150.797 250.764C151.316 249.615 151.855 248.467 152.44 247.32C153.581 245.025 154.864 242.734 156.225 240.445L157.081 241.448C154.124 241.555 151.189 241.614 148.3 241.576C146.848 241.572 145.416 241.525 143.986 241.474C142.564 241.405 141.143 241.337 139.758 241.189C141.335 240.923 142.876 240.736 144.416 240.549C145.948 240.38 147.479 240.215 148.99 240.093C152.025 239.817 155.015 239.64 157.982 239.51C158.16 239.502 158.324 239.52 158.465 239.561C158.607 239.602 158.723 239.667 158.807 239.751C158.891 239.835 158.942 239.936 158.956 240.05C158.971 240.164 158.948 240.288 158.89 240.415L158.844 240.503L158.838 240.513C157.499 242.803 156.082 245.091 154.523 247.374C153.758 248.517 152.946 249.658 152.116 250.798C151.256 251.938 150.408 253.078 149.431 254.215Z" fill="#C0AFA8"/>
<path d="M167.929 209.336C166.879 214.455 165.428 219.616 163.92 224.783C163.129 227.37 162.357 229.956 161.494 232.551C160.673 235.141 159.779 237.74 158.881 240.338L158.879 240.346C158.822 240.512 158.702 240.68 158.532 240.835C158.362 240.99 158.148 241.125 157.911 241.227C157.675 241.329 157.425 241.394 157.187 241.415C156.949 241.436 156.732 241.412 156.557 241.346C154.634 240.623 152.773 239.843 150.881 239.091C148.983 238.344 147.152 237.539 145.284 236.766C143.446 235.966 141.595 235.178 139.793 234.345C137.977 233.526 136.193 232.678 134.442 231.801C136.542 232.368 138.606 232.966 140.636 233.596C142.683 234.21 144.68 234.868 146.69 235.515C148.671 236.188 150.687 236.829 152.638 237.529C154.595 238.223 156.582 238.89 158.506 239.613L156.183 240.621C157.018 238.029 157.857 235.437 158.769 232.837C159.639 230.241 160.599 227.636 161.541 225.033C163.499 219.818 165.514 214.598 167.929 209.336Z" fill="#C0AFA8"/>
<path d="M148.377 220.712C149.823 221.733 151.474 222.612 153.308 223.337C154.964 224.032 157.041 224.336 159.342 224.221C161.655 223.994 164.084 223.283 166.303 222.183C168.752 220.987 171.105 219.665 173.331 218.238C171.75 220.084 169.652 221.804 167.207 223.26C164.59 224.853 161.502 225.891 158.587 226.156C155.755 226.317 153.297 225.8 151.606 224.687C149.96 223.684 148.855 222.323 148.377 220.712ZM161.169 229.587C159.227 230.252 157.263 230.808 155.302 231.248C153.377 231.69 151.457 232.065 149.549 232.371C147.642 232.681 145.75 232.921 143.883 233.089C141.976 233.272 140.118 233.331 138.331 233.264C140.273 232.596 142.238 232.039 144.199 231.6C146.124 231.158 148.045 230.783 149.951 230.479C151.859 230.171 153.75 229.933 155.617 229.764C157.523 229.581 159.382 229.522 161.169 229.587Z" fill="#C0AFA8"/>
<path d="M232.16 211.747C232.16 211.747 230.526 224.053 225.291 223.661C220.055 223.269 214.6 227.156 214.6 227.156L221.032 239.047L204.494 245.494L187.766 243.115L177.207 228.289C177.207 228.289 184.018 219.719 184.907 213.834C185.797 207.948 193.891 196.969 193.891 196.969L210.094 201.488C210.094 201.488 226.968 204.401 232.16 211.747Z" fill="#FFF4D0"/>
<path d="M214.6 227.155C213.018 227.251 211.424 227.288 209.825 227.296C208.229 227.316 206.623 227.283 205.017 227.254C203.407 227.196 201.803 227.174 200.185 227.075C198.569 226.988 196.957 226.924 195.333 226.792L195.512 224.489C197.682 225.59 199.849 226.696 202 227.846C204.153 228.989 206.285 230.187 208.424 231.369C212.677 233.796 216.914 236.266 221.032 239.046C216.51 237.326 212.105 235.296 207.717 233.224C205.535 232.156 203.347 231.104 201.18 229.997C199.01 228.897 196.857 227.754 194.706 226.605L194.687 226.595C194.404 226.443 194.159 226.218 193.993 225.954C193.828 225.69 193.75 225.403 193.772 225.14C193.795 224.876 193.917 224.65 194.119 224.498C194.32 224.346 194.59 224.277 194.885 224.302C196.509 224.438 198.146 224.642 199.779 224.822C201.409 224.991 203.054 225.237 204.692 225.447C206.335 225.687 207.978 225.921 209.63 226.209C211.279 226.485 212.934 226.79 214.6 227.155Z" fill="#C0AFA8"/>
<path d="M204.494 245.494C203.443 243.884 202.497 242.254 201.549 240.624C200.625 238.99 199.707 237.354 198.844 235.708C197.95 234.067 197.132 232.412 196.289 230.762C195.453 229.11 194.677 227.447 193.868 225.79L196.41 226.258C195.807 227.727 195.171 229.178 194.52 230.62C193.833 232.043 193.199 233.495 192.468 234.894C191.767 236.309 191.017 237.698 190.253 239.079C189.457 240.442 188.675 241.813 187.766 243.115C188.081 241.489 188.522 239.932 188.95 238.367C189.41 236.82 189.884 235.281 190.407 233.769C190.899 232.24 191.489 230.764 192.026 229.259C192.599 227.774 193.187 226.297 193.808 224.838L193.818 224.815C193.908 224.604 194.073 224.44 194.291 224.344C194.51 224.249 194.772 224.226 195.044 224.279C195.316 224.331 195.586 224.457 195.819 224.64C196.052 224.823 196.237 225.055 196.35 225.305C197.105 226.973 197.893 228.634 198.622 230.306C199.342 231.98 200.089 233.65 200.759 235.333C201.459 237.012 202.106 238.7 202.746 240.39C203.362 242.085 203.981 243.779 204.494 245.494Z" fill="#C0AFA8"/>
<path d="M177.207 228.29C178.573 227.768 179.993 227.372 181.407 226.963C182.834 226.584 184.27 226.223 185.724 225.906C188.621 225.247 191.576 224.725 194.564 224.279L193.9 225.856C192.475 223.123 191.11 220.375 189.866 217.596C189.226 216.211 188.639 214.813 188.056 213.413C187.496 212.008 186.936 210.602 186.474 209.172C187.452 210.471 188.331 211.795 189.21 213.119C190.067 214.449 190.919 215.78 191.717 217.124C193.352 219.804 194.865 222.514 196.319 225.24C196.405 225.402 196.46 225.572 196.48 225.738C196.5 225.904 196.484 226.063 196.434 226.208C196.384 226.352 196.301 226.478 196.188 226.578C196.076 226.678 195.937 226.751 195.78 226.792L195.667 226.815L195.654 226.818C192.675 227.285 189.663 227.677 186.592 227.931C185.063 228.071 183.514 228.168 181.957 228.245C180.388 228.293 178.825 228.354 177.207 228.29Z" fill="#C0AFA8"/>
<path d="M232.16 211.748C226.362 214.643 220.344 217.189 214.293 219.685C211.247 220.901 208.212 222.133 205.126 223.286C202.064 224.476 198.961 225.602 195.856 226.725L195.847 226.728C195.649 226.8 195.42 226.814 195.183 226.77C194.947 226.726 194.711 226.626 194.5 226.478C194.289 226.331 194.11 226.142 193.983 225.932C193.855 225.721 193.783 225.496 193.774 225.28C193.673 222.899 193.658 220.535 193.601 218.162C193.536 215.788 193.561 213.431 193.536 211.065C193.553 208.707 193.551 206.346 193.618 203.998C193.664 201.646 193.755 199.303 193.891 196.969C194.233 199.399 194.527 201.819 194.773 204.23C195.043 206.645 195.244 209.047 195.464 211.452C195.642 213.849 195.87 216.256 196.009 218.645C196.155 221.036 196.343 223.435 196.445 225.816L194.363 224.372C197.433 223.195 200.505 222.021 203.618 220.91C206.707 219.763 209.847 218.695 212.976 217.611C219.276 215.507 225.607 213.453 232.16 211.748Z" fill="#C0AFA8"/>
<path d="M211.629 201.792C211.208 203.945 211.027 206.186 211.086 208.483C211.097 210.588 211.703 212.796 212.846 214.898C214.109 216.927 215.928 218.698 218.06 219.973C220.393 221.393 222.815 222.628 225.291 223.66C222.666 223.56 219.942 222.872 217.34 221.653C214.518 220.374 212.067 218.225 210.495 215.651C209.069 213.08 208.516 210.347 208.923 207.89C209.238 205.561 210.164 203.474 211.629 201.792ZM208.07 220.72C206.515 219.377 205.063 217.931 203.734 216.4C202.418 214.904 201.175 213.361 200.008 211.779C198.838 210.199 197.749 208.581 196.744 206.932C195.706 205.257 194.82 203.532 194.096 201.782C195.653 203.122 197.106 204.568 198.435 206.1C199.751 207.596 200.994 209.139 202.158 210.722C203.325 212.303 204.414 213.922 205.419 215.571C206.456 217.246 207.343 218.969 208.07 220.72Z" fill="#C0AFA8"/>
</svg>
