<svg width="101" height="111" viewBox="0 0 101 111" fill="none" xmlns="http://www.w3.org/2000/svg">
<path d="M50.5 105C60.7272 120.095 95.5017 100.414 100.5 55C100.5 27.3858 67.9412 22.1941 50.5 5C30.835 -14.3864 0.5 27.3858 0.5 55C0.5 82.6142 30.4668 75.4315 50.5 105Z" fill="#FFE3C5"/>
<path d="M94.0294 65.6029L61.4673 83.1427V43.3565L94.0294 33.191V65.6029Z" fill="#FF8400"/>
<path d="M23.0283 79.2543L9.60387 79.4426C9.40259 79.4007 9.22187 79.2908 9.09215 79.1313C8.96242 78.9718 8.8916 78.7725 8.8916 78.5669V40.6079C8.8916 40.475 8.92122 40.3437 8.97832 40.2237C9.03542 40.1037 9.11855 39.9979 9.22167 39.914C9.3248 39.8301 9.44532 39.7703 9.57447 39.7388C9.70362 39.7074 9.83816 39.7051 9.9683 39.7322L23.0283 39.468V79.2543ZM74.427 90.439L61.4673 83.1429V43.3566L74.9921 50.8408C75.1702 50.9002 75.3252 51.0141 75.4351 51.1664C75.5449 51.3187 75.604 51.5017 75.604 51.6895V89.5903C75.604 89.732 75.5703 89.8717 75.5058 89.9978C75.4412 90.1239 75.3476 90.2329 75.2327 90.3158C75.1177 90.3987 74.9847 90.4531 74.8447 90.4745C74.7046 90.4959 74.5614 90.4837 74.427 90.439Z" fill="#FFC60B"/>
<path d="M61.4674 83.1427L23.0283 79.2541V39.4679L61.4674 43.3565V83.1427Z" fill="#744F40"/>
<path d="M51.6926 96.7696L15.4531 92.2231L23.0282 79.2542L61.4672 83.1428L52.4009 96.4655C52.313 96.5658 52.2037 96.6452 52.0812 96.6978C51.9586 96.7504 51.8259 96.7749 51.6926 96.7696Z" fill="#FFC60B"/>
<path d="M61.4674 43.3565L94.0295 33.1911L54.228 29.4861L61.4674 43.3565Z" fill="#FFA647"/>
<path d="M23.0283 79.2541L61.4674 61.3055V43.3565L23.0283 39.4679V79.2541Z" fill="#4F200D"/>
<path d="M61.4675 43.3566L23.0284 39.468L18.1321 24.8638C18.0409 24.7293 17.9881 24.5726 17.9793 24.4103C17.9706 24.2481 18.0061 24.0865 18.0823 23.9429C18.1584 23.7994 18.2722 23.6793 18.4114 23.5955C18.5506 23.5118 18.71 23.4675 18.8725 23.4675L55.0825 26.4491C55.246 26.4491 55.4064 26.4939 55.5462 26.5786C55.686 26.6634 55.7999 26.7848 55.8755 26.9297L61.4675 43.3566Z" fill="#FFC60B"/>
</svg>
