<svg width="20" height="15" viewBox="0 0 20 15" fill="none" xmlns="http://www.w3.org/2000/svg">
<path fill-rule="evenodd" clip-rule="evenodd" d="M5.33943 0.445016C5.02212 0.711267 4.98073 1.18433 5.24698 1.50164L5.91233 2.29457C2.25249 3.74678 0 6.74969 0 7.5001C0 8.5001 4 13.5001 10 13.5001C11.6702 13.5001 13.1854 13.1127 14.5025 12.5319L15.853 14.1414C16.1192 14.4587 16.5923 14.5001 16.9096 14.2338C17.2269 13.9676 17.2683 13.4945 17.002 13.1772L6.39605 0.537458C6.1298 0.220152 5.65673 0.178764 5.33943 0.445016ZM12.0879 9.65433L8.24093 5.06968C7.48903 5.61483 7 6.50036 7 7.5001C7 9.15696 8.34315 10.5001 10 10.5001C10.8116 10.5001 11.5479 10.1779 12.0879 9.65433Z" fill="#9F9F9F"/>
<path d="M20 7.5001C20 8.01008 18.9597 9.56037 17.1443 10.9573L9.23183 1.52751C9.48403 1.50948 9.74014 1.5001 10 1.5001C16 1.5001 20 6.5001 20 7.5001Z" fill="#9F9F9F"/>
</svg>
