<svg width="50" height="50" viewBox="0 0 50 50" fill="none" xmlns="http://www.w3.org/2000/svg">
<rect width="50" height="50" fill="#D9D9D9"/>
<path d="M20.5 20C20.5 20.2761 20.2761 20.5 20 20.5C19.7239 20.5 19.5 20.2761 19.5 20C19.5 19.7239 19.7239 19.5 20 19.5C20.2761 19.5 20.5 19.7239 20.5 20Z" fill="#9F9F9F"/>
<path fill-rule="evenodd" clip-rule="evenodd" d="M17 16C16.4477 16 16 16.4477 16 17V25.8367C16.1832 25.6481 16.3785 25.4634 16.5844 25.2853C17.4707 24.5187 18.5953 23.8376 19.8614 23.5039C21.138 23.1675 22.5558 23.1865 23.9802 23.8253C24.9422 24.2567 25.8781 24.9575 26.7636 25.975C27.8502 25.0247 29.102 24.4903 30.4164 24.4724C31.6655 24.4553 32.8898 24.9058 34 25.7859V17C34 16.4477 33.5523 16 33 16H17ZM22 20C22 21.1046 21.1046 22 20 22C18.8954 22 18 21.1046 18 20C18 18.8954 18.8954 18 20 18C21.1046 18 22 18.8954 22 20Z" fill="#9F9F9F"/>
<path d="M27.9849 27.6388C27.8836 27.477 27.7813 27.3203 27.6781 27.1685C28.5631 26.368 29.5153 25.9848 30.4369 25.9722C31.5093 25.9576 32.6699 26.4432 33.7663 27.6052C32.2701 29.606 29.2257 29.619 27.9849 27.6388Z" fill="#9F9F9F"/>
<path d="M34 29.484C31.7791 31.2123 28.3476 31.0428 26.7138 28.4352C25.6015 26.6599 24.4465 25.6783 23.3664 25.194C22.2933 24.7127 21.2318 24.694 20.2437 24.9544C19.2451 25.2176 18.3193 25.768 17.5657 26.4198C16.8073 27.0758 16.2667 27.7966 16.0092 28.3523L16 28.348V33C16 33.5523 16.4477 34 17 34H33C33.5523 34 34 33.5523 34 33V29.484Z" fill="#9F9F9F"/>
</svg>
