<svg width="24" height="24" viewBox="0 0 24 24" fill="none" xmlns="http://www.w3.org/2000/svg">
<circle cx="12" cy="8" r="4" fill="#181818"/>
<path d="M15.1548 11.8796C16.2808 10.9628 17 9.56554 17 8.00031C17 7.31319 16.8614 6.65844 16.6106 6.0625C17.9747 6.34455 19 7.55269 19 9.00031C19 10.6572 17.6569 12.0003 16 12.0003C15.7065 12.0003 15.4229 11.9582 15.1548 11.8796Z" fill="#181818"/>
<path d="M8.8457 11.8796C7.71971 10.9628 7.00049 9.56554 7.00049 8.00031C7.00049 7.31319 7.13909 6.65844 7.38986 6.0625C6.02582 6.34455 5.00049 7.55269 5.00049 9.00031C5.00049 10.6572 6.34363 12.0003 8.00049 12.0003C8.29398 12.0003 8.57762 11.9582 8.8457 11.8796Z" fill="#181818"/>
<path d="M5 20C5 18.1435 5.7375 16.363 7.05025 15.0503C8.36301 13.7375 10.1435 13 12 13C13.8565 13 15.637 13.7375 16.9497 15.0503C18.2625 16.363 19 18.1435 19 20L5 20Z" fill="#181818"/>
<path d="M20 19.9999L22 19.9999C22 18.4086 21.3679 16.8825 20.2426 15.7573C19.4783 14.993 18.529 14.4562 17.5 14.1904C17.5529 14.2405 17.6052 14.2914 17.6569 14.3431C19.1572 15.8434 20 17.8782 20 19.9999Z" fill="#181818"/>
<path d="M4.00006 19.9999L2 19.9999C2 18.4086 2.63214 16.8825 3.75736 15.7573C4.5217 14.993 5.47102 14.4561 6.5001 14.1904C6.44718 14.2405 6.39488 14.2914 6.34321 14.3431C4.84292 15.8434 4.00006 17.8782 4.00006 19.9999Z" fill="#181818"/>
</svg>
