<svg width="40" height="41" viewBox="0 0 40 41" fill="none" xmlns="http://www.w3.org/2000/svg">
<path d="M13.333 31.8314C13.333 31.141 13.8927 30.5814 14.583 30.5814H25.4163C26.1067 30.5814 26.6663 31.141 26.6663 31.8314C26.6663 32.5217 26.1067 33.0814 25.4163 33.0814H14.583C13.8927 33.0814 13.333 32.5217 13.333 31.8314Z" fill="#9F9F9F"/>
<path d="M14.583 26.333C13.8927 26.333 13.333 26.8927 13.333 27.583C13.333 28.2734 13.8927 28.833 14.583 28.833H25.4163C26.1067 28.833 26.6663 28.2734 26.6663 27.583C26.6663 26.8927 26.1067 26.333 25.4163 26.333H14.583Z" fill="#9F9F9F"/>
<path fill-rule="evenodd" clip-rule="evenodd" d="M8.33301 13.4163V7.16634C8.33301 5.32539 9.82539 3.83301 11.6663 3.83301H28.333C30.174 3.83301 31.6663 5.32539 31.6663 7.16634V13.4163H33.7497C35.3605 13.4163 36.6663 14.7222 36.6663 16.333V24.6663C36.6663 26.2772 35.3605 27.583 33.7497 27.583H31.6663V33.833C31.6663 35.674 30.174 37.1663 28.333 37.1663H11.6663C9.82539 37.1663 8.33301 35.674 8.33301 33.833V27.583H6.24967C4.63884 27.583 3.33301 26.2772 3.33301 24.6663V16.333C3.33301 14.7222 4.63884 13.4163 6.24967 13.4163H8.33301ZM11.6663 6.33301H28.333C28.7932 6.33301 29.1663 6.7061 29.1663 7.16634V13.4163H10.833V7.16634C10.833 6.7061 11.2061 6.33301 11.6663 6.33301ZM7.49967 17.9997C7.49967 17.5394 7.87277 17.1663 8.33301 17.1663H11.6663C12.1266 17.1663 12.4997 17.5394 12.4997 17.9997C12.4997 18.4599 12.1266 18.833 11.6663 18.833H8.33301C7.87277 18.833 7.49967 18.4599 7.49967 17.9997ZM29.1663 24.6663H10.833V33.833C10.833 34.2932 11.2061 34.6663 11.6663 34.6663H28.333C28.7932 34.6663 29.1663 34.2932 29.1663 33.833V24.6663Z" fill="#9F9F9F"/>
</svg>
