<svg width="25" height="25" viewBox="0 0 25 25" fill="none" xmlns="http://www.w3.org/2000/svg">
<path d="M17.8333 16.2229C17.1578 16.2229 16.5533 16.494 16.0911 16.9187L9.75333 13.1687C9.79778 12.9608 9.83333 12.753 9.83333 12.5361C9.83333 12.3193 9.79778 12.1114 9.75333 11.9036L16.02 8.18976C16.5 8.64157 17.1311 8.92169 17.8333 8.92169C19.3089 8.92169 20.5 7.71084 20.5 6.21084C20.5 4.71084 19.3089 3.5 17.8333 3.5C16.3578 3.5 15.1667 4.71084 15.1667 6.21084C15.1667 6.42771 15.2022 6.63554 15.2467 6.84337L8.98 10.5572C8.5 10.1054 7.86889 9.8253 7.16667 9.8253C5.69111 9.8253 4.5 11.0361 4.5 12.5361C4.5 14.0361 5.69111 15.247 7.16667 15.247C7.86889 15.247 8.5 14.9669 8.98 14.5151L15.3089 18.2741C15.2644 18.4639 15.2378 18.6627 15.2378 18.8614C15.2378 20.3163 16.4022 21.5 17.8333 21.5C19.2644 21.5 20.4289 20.3163 20.4289 18.8614C20.4289 17.4066 19.2644 16.2229 17.8333 16.2229Z" fill="black"/>
</svg>
