<svg width="24" height="24" viewBox="0 0 24 24" fill="none" xmlns="http://www.w3.org/2000/svg">
<g clip-path="url(#clip0_4778_7787)">
<path d="M21.7208 8.87775L14.2208 2.21108C14.101 2.10345 13.9526 2.03292 13.7935 2.00803C13.6344 1.98315 13.4715 2.005 13.3246 2.07092C13.1776 2.13683 13.053 2.24399 12.9658 2.37937C12.8786 2.51476 12.8326 2.67255 12.8333 2.83358V5.50608C10.33 6.17775 2 9.30441 2 21.1669C2.00031 21.3604 2.06791 21.5477 2.19123 21.6968C2.31455 21.8458 2.48589 21.9474 2.67587 21.9839C2.86584 22.0205 3.06262 21.9898 3.23245 21.8971C3.40229 21.8045 3.53459 21.6556 3.60667 21.4761C6.0775 15.2986 10.8942 14.0094 12.8325 13.7402V16.1669C12.8323 16.3278 12.8787 16.4853 12.9661 16.6204C13.0535 16.7555 13.1781 16.8624 13.3249 16.9282C13.4717 16.994 13.6344 17.0159 13.7934 16.9913C13.9524 16.9667 14.1008 16.8966 14.2208 16.7894L21.7208 10.1227C21.8087 10.0446 21.879 9.94868 21.9271 9.84139C21.9753 9.7341 22.0001 9.61784 22.0001 9.50025C22.0001 9.38265 21.9753 9.26639 21.9271 9.1591C21.879 9.05181 21.8087 8.95593 21.7208 8.87775Z" fill="#565656"/>
</g>
<defs>
<clipPath id="clip0_4778_7787">
<rect width="20" height="20" fill="white" transform="translate(2 2)"/>
</clipPath>
</defs>
</svg>
