<svg width="25" height="25" viewBox="0 0 25 25" fill="none" xmlns="http://www.w3.org/2000/svg">
<g clip-path="url(#clip0_4778_8356)">
<path d="M22.2208 9.37775L14.7208 2.71108C14.601 2.60345 14.4526 2.53292 14.2935 2.50803C14.1344 2.48315 13.9715 2.505 13.8246 2.57092C13.6776 2.63683 13.553 2.74399 13.4658 2.87937C13.3786 3.01476 13.3326 3.17255 13.3333 3.33358V6.00608C10.83 6.67775 2.5 9.80441 2.5 21.6669C2.50031 21.8604 2.56791 22.0477 2.69123 22.1968C2.81455 22.3458 2.98589 22.4474 3.17587 22.4839C3.36584 22.5205 3.56262 22.4898 3.73245 22.3971C3.90229 22.3045 4.03459 22.1556 4.10667 21.9761C6.5775 15.7986 11.3942 14.5094 13.3325 14.2402V16.6669C13.3323 16.8278 13.3787 16.9853 13.4661 17.1204C13.5535 17.2555 13.6781 17.3624 13.8249 17.4282C13.9717 17.494 14.1344 17.5159 14.2934 17.4913C14.4524 17.4667 14.6008 17.3966 14.7208 17.2894L22.2208 10.6227C22.3087 10.5446 22.379 10.4487 22.4271 10.3414C22.4753 10.2341 22.5001 10.1178 22.5001 10.0002C22.5001 9.88265 22.4753 9.76639 22.4271 9.6591C22.379 9.55181 22.3087 9.45593 22.2208 9.37775Z" fill="#181818"/>
</g>
<defs>
<clipPath id="clip0_4778_8356">
<rect width="20" height="20" fill="white" transform="translate(2.5 2.5)"/>
</clipPath>
</defs>
</svg>
