<svg width="300" height="292" viewBox="0 0 300 292" fill="none" xmlns="http://www.w3.org/2000/svg">
<g clip-path="url(#clip0_328_8640)">
<rect width="300" height="292" rx="20" fill="url(#paint0_linear_328_8640)"/>
<g filter="url(#filter0_f_328_8640)">
<rect width="49.423" height="395.634" transform="matrix(-0.819152 -0.573576 -0.573576 0.819152 57.4115 -117.696)" fill="white" fill-opacity="0.4"/>
</g>
<path d="M227.763 30.4738H164.478V30.1502C164.478 29.8983 164.376 29.6566 164.193 29.4785C164.011 29.3003 163.763 29.2002 163.505 29.2002H136.756C136.498 29.2002 136.25 29.3003 136.068 29.4785C135.885 29.6566 135.783 29.8983 135.783 30.1502V30.4738H72.2373C71.1019 30.4738 70.0131 30.9142 69.2103 31.698C68.4075 32.4819 67.9565 33.5451 67.9565 34.6536V119.267C67.9565 120.376 68.4075 121.439 69.2103 122.223C70.0131 123.007 71.1019 123.447 72.2373 123.447H227.763C228.898 123.447 229.987 123.007 230.79 122.223C231.592 121.439 232.044 120.376 232.044 119.267V34.6536C232.044 33.5451 231.592 32.4819 230.79 31.698C229.987 30.9142 228.898 30.4738 227.763 30.4738Z" fill="#4F200D"/>
<path d="M75.6416 39.3691C75.5354 39.3693 75.4336 39.4106 75.3585 39.4839C75.2834 39.5572 75.2412 39.6567 75.2411 39.7604V120.018C75.2412 120.122 75.2834 120.221 75.3585 120.295C75.4336 120.368 75.5354 120.409 75.6416 120.409H224.358C224.465 120.409 224.566 120.368 224.642 120.295C224.717 120.221 224.759 120.122 224.759 120.018V39.7604C224.759 39.6567 224.717 39.5572 224.642 39.4839C224.566 39.4105 224.465 39.3693 224.358 39.3691H75.6416Z" fill="#FFA647"/>
<path d="M149.87 35.5684C150.734 35.5684 151.435 34.8841 151.435 34.04C151.435 33.196 150.734 32.5117 149.87 32.5117C149.005 32.5117 148.304 33.196 148.304 34.04C148.304 34.8841 149.005 35.5684 149.87 35.5684Z" fill="#FFA647"/>
<path d="M234.894 117.744H220V116.242C220 116.16 219.905 116.093 219.787 116.093H214.681C214.563 116.093 214.468 116.16 214.468 116.242V117.744H211.277V116.242C211.277 116.16 211.181 116.093 211.064 116.093H205.957C205.84 116.093 205.745 116.16 205.745 116.242V117.744H202.553V116.242C202.553 116.16 202.458 116.093 202.34 116.093H197.234C197.117 116.093 197.021 116.16 197.021 116.242V117.744H193.83V116.242C193.83 116.16 193.735 116.093 193.617 116.093H188.511C188.393 116.093 188.298 116.16 188.298 116.242V117.744H185.106V116.242C185.106 116.16 185.011 116.093 184.894 116.093H179.787C179.67 116.093 179.574 116.16 179.574 116.242V117.744H176.383V116.242C176.383 116.16 176.288 116.093 176.17 116.093H171.064C170.946 116.093 170.851 116.16 170.851 116.242V117.744H167.66V116.242C167.66 116.16 167.564 116.093 167.447 116.093H127.447C127.329 116.093 127.234 116.16 127.234 116.242V117.744H124.043V116.242C124.043 116.16 123.947 116.093 123.83 116.093H118.723C118.606 116.093 118.511 116.16 118.511 116.242V117.744H115.319V116.242C115.319 116.16 115.224 116.093 115.106 116.093H110C109.882 116.093 109.787 116.16 109.787 116.242V117.744H106.596V116.242C106.596 116.16 106.5 116.093 106.383 116.093H101.277C101.159 116.093 101.064 116.16 101.064 116.242V117.744H97.8723V116.242C97.8723 116.16 97.7771 116.093 97.6596 116.093H92.5532C92.4357 116.093 92.3404 116.16 92.3404 116.242V117.744H89.1489V116.242C89.1489 116.16 89.0537 116.093 88.9362 116.093H83.8298C83.7123 116.093 83.617 116.16 83.617 116.242V117.744H80.4255V116.242C80.4255 116.16 80.3303 116.093 80.2128 116.093H75.1064C74.9889 116.093 74.8936 116.16 74.8936 116.242V117.744H65.1064C62.2862 117.744 60 119.349 60 121.328V122.949C60 124.928 62.2862 126.533 65.1064 126.533H234.894C237.714 126.533 240 124.928 240 122.949V121.328C240 119.349 237.714 117.744 234.894 117.744Z" fill="#4F200D"/>
<path d="M132.685 73.1349H88.728C88.6362 73.1349 88.5481 73.0993 88.4832 73.0359C88.4183 72.9725 88.3818 72.8866 88.3818 72.7969C88.3818 72.7073 88.4183 72.6214 88.4832 72.558C88.5481 72.4946 88.6362 72.459 88.728 72.459H132.685C132.777 72.459 132.865 72.4946 132.93 72.558C132.995 72.6214 133.031 72.7073 133.031 72.7969C133.031 72.8866 132.995 72.9725 132.93 73.0359C132.865 73.0993 132.777 73.1349 132.685 73.1349Z" fill="#F2F2F2"/>
<path d="M132.685 80.5705H88.728C88.6362 80.5705 88.5481 80.5349 88.4832 80.4715C88.4183 80.4081 88.3818 80.3221 88.3818 80.2325C88.3818 80.1429 88.4183 80.0569 88.4832 79.9935C88.5481 79.9301 88.6362 79.8945 88.728 79.8945H132.685C132.777 79.8945 132.865 79.9301 132.93 79.9935C132.995 80.0569 133.031 80.1429 133.031 80.2325C133.031 80.3221 132.995 80.4081 132.93 80.4715C132.865 80.5349 132.777 80.5705 132.685 80.5705Z" fill="#F2F2F2"/>
<path d="M132.685 88.006H88.7279C88.6824 88.0061 88.6372 87.9975 88.5951 87.9806C88.553 87.9636 88.5147 87.9388 88.4825 87.9074C88.4502 87.876 88.4246 87.8387 88.4072 87.7976C88.3897 87.7565 88.3807 87.7125 88.3807 87.668C88.3807 87.6236 88.3897 87.5795 88.4072 87.5385C88.4246 87.4974 88.4502 87.4601 88.4825 87.4287C88.5147 87.3973 88.553 87.3724 88.5951 87.3555C88.6372 87.3386 88.6824 87.3299 88.7279 87.3301H132.685C132.731 87.3299 132.776 87.3386 132.818 87.3555C132.86 87.3724 132.898 87.3973 132.931 87.4287C132.963 87.4601 132.988 87.4974 133.006 87.5385C133.023 87.5795 133.032 87.6236 133.032 87.668C133.032 87.7125 133.023 87.7565 133.006 87.7976C132.988 87.8387 132.963 87.876 132.931 87.9074C132.898 87.9388 132.86 87.9636 132.818 87.9806C132.776 87.9975 132.731 88.0061 132.685 88.006Z" fill="#F2F2F2"/>
<path d="M207.274 53.7021H152.933C152.36 53.7021 151.895 54.1561 151.895 54.716V105.748C151.895 106.308 152.36 106.762 152.933 106.762H207.274C207.848 106.762 208.313 106.308 208.313 105.748V54.716C208.313 54.1561 207.848 53.7021 207.274 53.7021Z" fill="white"/>
<path d="M163.192 81.7841C163.378 78.5703 164.727 75.5256 166.999 73.1927C169.27 70.8598 172.316 69.3904 175.594 69.0465C178.872 68.7026 182.168 69.5065 184.895 71.3149C187.622 73.1234 189.603 75.8187 190.484 78.9205C190.653 78.9146 190.821 78.908 190.991 78.908C191.571 78.9134 192.146 79.0089 192.695 79.1911C199.615 81.4096 197.793 91.4965 190.51 91.4965H172.612C171.346 91.5 170.092 91.254 168.926 90.7734C167.76 90.2927 166.705 89.5872 165.825 88.6991C164.944 87.811 164.257 86.7585 163.802 85.6048C163.348 84.451 163.137 83.2196 163.182 81.9844C163.185 81.9177 163.188 81.851 163.192 81.7841Z" fill="#FFA647"/>
<path d="M179.506 81.5719V76.0127H176.44V81.5719H173.993L175.983 84.9381L177.973 88.3039L179.963 84.9381L181.953 81.5719H179.506Z" fill="white"/>
<path d="M74.2651 156.816V163.856C74.2651 164.965 74.5265 165.787 75.0491 166.32C75.5825 166.853 76.3078 167.12 77.2251 167.12C78.1425 167.12 78.8571 166.859 79.3691 166.336C79.8918 165.803 80.1531 164.976 80.1531 163.856V156.816H81.2731V163.84C81.2731 165.259 80.8945 166.325 80.1371 167.04C79.3905 167.755 78.4145 168.112 77.2091 168.112C76.0038 168.112 75.0225 167.755 74.2651 167.04C73.5185 166.325 73.1451 165.259 73.1451 163.84V156.816H74.2651ZM85.1152 161.184C85.3926 160.597 85.8299 160.112 86.4272 159.728C87.0352 159.333 87.7552 159.136 88.5872 159.136C89.3766 159.136 90.0859 159.323 90.7152 159.696C91.3552 160.059 91.8512 160.581 92.2032 161.264C92.5659 161.936 92.7472 162.72 92.7472 163.616C92.7472 164.512 92.5659 165.301 92.2032 165.984C91.8512 166.667 91.3552 167.195 90.7152 167.568C90.0859 167.941 89.3766 168.128 88.5872 168.128C87.7659 168.128 87.0512 167.936 86.4432 167.552C85.8352 167.157 85.3926 166.667 85.1152 166.08V172.128H84.0112V159.264H85.1152V161.184ZM91.6112 163.616C91.6112 162.891 91.4672 162.267 91.1792 161.744C90.9019 161.211 90.5179 160.805 90.0272 160.528C89.5366 160.251 88.9819 160.112 88.3632 160.112C87.7659 160.112 87.2166 160.256 86.7152 160.544C86.2246 160.832 85.8352 161.243 85.5472 161.776C85.2592 162.309 85.1152 162.928 85.1152 163.632C85.1152 164.336 85.2592 164.955 85.5472 165.488C85.8352 166.021 86.2246 166.432 86.7152 166.72C87.2166 167.008 87.7659 167.152 88.3632 167.152C88.9819 167.152 89.5366 167.013 90.0272 166.736C90.5179 166.448 90.9019 166.037 91.1792 165.504C91.4672 164.96 91.6112 164.331 91.6112 163.616ZM98.7121 159.136C99.5335 159.136 100.248 159.328 100.856 159.712C101.464 160.096 101.901 160.581 102.168 161.168V159.264H103.288V168.224C103.288 169.024 103.112 169.733 102.76 170.352C102.419 170.971 101.939 171.445 101.32 171.776C100.701 172.117 99.9975 172.288 99.2081 172.288C98.0881 172.288 97.1548 172.021 96.4081 171.488C95.6721 170.955 95.2135 170.229 95.0321 169.312H96.1361C96.3281 169.92 96.6908 170.405 97.2241 170.768C97.7681 171.131 98.4295 171.312 99.2081 171.312C99.7735 171.312 100.28 171.189 100.728 170.944C101.176 170.709 101.528 170.357 101.784 169.888C102.04 169.419 102.168 168.864 102.168 168.224V166.064C101.891 166.661 101.448 167.157 100.84 167.552C100.243 167.936 99.5335 168.128 98.7121 168.128C97.9121 168.128 97.1921 167.941 96.5521 167.568C95.9228 167.195 95.4268 166.667 95.0641 165.984C94.7121 165.301 94.5361 164.512 94.5361 163.616C94.5361 162.72 94.7121 161.936 95.0641 161.264C95.4268 160.581 95.9228 160.059 96.5521 159.696C97.1921 159.323 97.9121 159.136 98.7121 159.136ZM102.168 163.632C102.168 162.928 102.024 162.309 101.736 161.776C101.448 161.243 101.053 160.832 100.552 160.544C100.061 160.256 99.5175 160.112 98.9201 160.112C98.3015 160.112 97.7468 160.251 97.2561 160.528C96.7655 160.805 96.3761 161.211 96.0881 161.744C95.8108 162.267 95.6721 162.891 95.6721 163.616C95.6721 164.331 95.8108 164.96 96.0881 165.504C96.3761 166.037 96.7655 166.448 97.2561 166.736C97.7468 167.013 98.3015 167.152 98.9201 167.152C99.5175 167.152 100.061 167.008 100.552 166.72C101.053 166.432 101.448 166.021 101.736 165.488C102.024 164.955 102.168 164.336 102.168 163.632ZM107.205 160.816C107.45 160.272 107.824 159.851 108.325 159.552C108.837 159.253 109.461 159.104 110.197 159.104V160.272H109.893C109.082 160.272 108.432 160.491 107.941 160.928C107.45 161.365 107.205 162.096 107.205 163.12V168H106.085V159.264H107.205V160.816ZM111.61 163.616C111.61 162.72 111.786 161.936 112.138 161.264C112.501 160.581 112.997 160.059 113.626 159.696C114.266 159.323 114.986 159.136 115.786 159.136C116.618 159.136 117.333 159.328 117.93 159.712C118.538 160.096 118.975 160.587 119.242 161.184V159.264H120.362V168H119.242V166.064C118.965 166.661 118.522 167.157 117.914 167.552C117.317 167.936 116.602 168.128 115.77 168.128C114.981 168.128 114.266 167.941 113.626 167.568C112.997 167.195 112.501 166.667 112.138 165.984C111.786 165.301 111.61 164.512 111.61 163.616ZM119.242 163.632C119.242 162.928 119.098 162.309 118.81 161.776C118.522 161.243 118.127 160.832 117.626 160.544C117.135 160.256 116.591 160.112 115.994 160.112C115.375 160.112 114.821 160.251 114.33 160.528C113.839 160.805 113.45 161.211 113.162 161.744C112.885 162.267 112.746 162.891 112.746 163.616C112.746 164.331 112.885 164.96 113.162 165.504C113.45 166.037 113.839 166.448 114.33 166.736C114.821 167.013 115.375 167.152 115.994 167.152C116.591 167.152 117.135 167.008 117.626 166.72C118.127 166.432 118.522 166.021 118.81 165.488C119.098 164.955 119.242 164.336 119.242 163.632ZM122.647 163.616C122.647 162.72 122.828 161.936 123.191 161.264C123.553 160.581 124.049 160.059 124.679 159.696C125.319 159.323 126.039 159.136 126.839 159.136C127.607 159.136 128.3 159.323 128.919 159.696C129.537 160.069 129.991 160.555 130.279 161.152V156.16H131.399V168H130.279V166.048C130.012 166.656 129.575 167.157 128.967 167.552C128.359 167.936 127.644 168.128 126.823 168.128C126.023 168.128 125.303 167.941 124.663 167.568C124.033 167.195 123.537 166.667 123.175 165.984C122.823 165.301 122.647 164.512 122.647 163.616ZM130.279 163.632C130.279 162.928 130.135 162.309 129.847 161.776C129.559 161.243 129.164 160.832 128.663 160.544C128.172 160.256 127.628 160.112 127.031 160.112C126.412 160.112 125.857 160.251 125.367 160.528C124.876 160.805 124.487 161.211 124.199 161.744C123.921 162.267 123.783 162.891 123.783 163.616C123.783 164.331 123.921 164.96 124.199 165.504C124.487 166.037 124.876 166.448 125.367 166.736C125.857 167.013 126.412 167.152 127.031 167.152C127.628 167.152 128.172 167.008 128.663 166.72C129.164 166.432 129.559 166.021 129.847 165.488C130.135 164.955 130.279 164.336 130.279 163.632ZM142.1 163.184C142.1 163.568 142.089 163.861 142.068 164.064H134.82C134.852 164.725 135.012 165.291 135.3 165.76C135.588 166.229 135.966 166.587 136.436 166.832C136.905 167.067 137.417 167.184 137.972 167.184C138.697 167.184 139.305 167.008 139.796 166.656C140.297 166.304 140.628 165.829 140.788 165.232H141.972C141.758 166.085 141.3 166.784 140.596 167.328C139.902 167.861 139.028 168.128 137.972 168.128C137.15 168.128 136.414 167.947 135.764 167.584C135.113 167.211 134.601 166.688 134.228 166.016C133.865 165.333 133.684 164.539 133.684 163.632C133.684 162.725 133.865 161.931 134.228 161.248C134.59 160.565 135.097 160.043 135.748 159.68C136.398 159.317 137.14 159.136 137.972 159.136C138.804 159.136 139.529 159.317 140.148 159.68C140.777 160.043 141.257 160.533 141.588 161.152C141.929 161.76 142.1 162.437 142.1 163.184ZM140.964 163.152C140.974 162.501 140.841 161.947 140.564 161.488C140.297 161.029 139.929 160.683 139.46 160.448C138.99 160.213 138.478 160.096 137.924 160.096C137.092 160.096 136.382 160.363 135.796 160.896C135.209 161.429 134.884 162.181 134.82 163.152H140.964ZM150.475 160.208V165.632C150.475 166.165 150.577 166.533 150.779 166.736C150.982 166.939 151.339 167.04 151.851 167.04H152.875V168H151.675C150.886 168 150.299 167.819 149.915 167.456C149.531 167.083 149.339 166.475 149.339 165.632V160.208H148.123V159.264H149.339V157.072H150.475V159.264H152.875V160.208H150.475ZM158.787 168.128C157.965 168.128 157.224 167.947 156.563 167.584C155.912 167.211 155.395 166.688 155.011 166.016C154.637 165.333 154.451 164.539 154.451 163.632C154.451 162.725 154.643 161.936 155.027 161.264C155.411 160.581 155.933 160.059 156.595 159.696C157.256 159.323 157.997 159.136 158.819 159.136C159.64 159.136 160.381 159.323 161.043 159.696C161.715 160.059 162.237 160.581 162.611 161.264C162.995 161.936 163.187 162.725 163.187 163.632C163.187 164.528 162.995 165.317 162.611 166C162.227 166.683 161.699 167.211 161.027 167.584C160.355 167.947 159.608 168.128 158.787 168.128ZM158.787 167.152C159.363 167.152 159.896 167.024 160.387 166.768C160.877 166.501 161.272 166.107 161.571 165.584C161.88 165.051 162.035 164.4 162.035 163.632C162.035 162.864 161.885 162.219 161.587 161.696C161.288 161.163 160.893 160.768 160.403 160.512C159.912 160.245 159.379 160.112 158.803 160.112C158.227 160.112 157.693 160.245 157.203 160.512C156.712 160.768 156.317 161.163 156.019 161.696C155.731 162.219 155.587 162.864 155.587 163.632C155.587 164.4 155.731 165.051 156.019 165.584C156.317 166.107 156.707 166.501 157.187 166.768C157.677 167.024 158.211 167.152 158.787 167.152ZM177.795 160.192C177.795 160.757 177.661 161.291 177.395 161.792C177.128 162.293 176.701 162.704 176.115 163.024C175.528 163.333 174.776 163.488 173.859 163.488H171.843V168H170.019V156.88H173.859C174.712 156.88 175.432 157.029 176.019 157.328C176.616 157.616 177.059 158.011 177.347 158.512C177.645 159.013 177.795 159.573 177.795 160.192ZM173.859 162C174.552 162 175.069 161.845 175.411 161.536C175.752 161.216 175.923 160.768 175.923 160.192C175.923 158.976 175.235 158.368 173.859 158.368H171.843V162H173.859ZM185.55 168L182.99 163.552H181.598V168H179.774V156.88H183.614C184.468 156.88 185.188 157.029 185.774 157.328C186.372 157.627 186.814 158.027 187.102 158.528C187.401 159.029 187.55 159.589 187.55 160.208C187.55 160.933 187.337 161.595 186.91 162.192C186.494 162.779 185.849 163.179 184.974 163.392L187.726 168H185.55ZM181.598 162.096H183.614C184.297 162.096 184.809 161.925 185.15 161.584C185.502 161.243 185.678 160.784 185.678 160.208C185.678 159.632 185.508 159.184 185.166 158.864C184.825 158.533 184.308 158.368 183.614 158.368H181.598V162.096ZM195.196 168.112C194.161 168.112 193.206 167.872 192.332 167.392C191.468 166.901 190.78 166.224 190.268 165.36C189.766 164.485 189.516 163.504 189.516 162.416C189.516 161.328 189.766 160.352 190.268 159.488C190.78 158.624 191.468 157.952 192.332 157.472C193.206 156.981 194.161 156.736 195.196 156.736C196.241 156.736 197.196 156.981 198.06 157.472C198.934 157.952 199.622 158.624 200.124 159.488C200.625 160.352 200.876 161.328 200.876 162.416C200.876 163.504 200.625 164.485 200.124 165.36C199.622 166.224 198.934 166.901 198.06 167.392C197.196 167.872 196.241 168.112 195.196 168.112ZM195.196 166.528C195.932 166.528 196.588 166.363 197.164 166.032C197.74 165.691 198.188 165.211 198.508 164.592C198.838 163.963 199.004 163.237 199.004 162.416C199.004 161.595 198.838 160.875 198.508 160.256C198.188 159.637 197.74 159.163 197.164 158.832C196.588 158.501 195.932 158.336 195.196 158.336C194.46 158.336 193.804 158.501 193.228 158.832C192.652 159.163 192.198 159.637 191.868 160.256C191.548 160.875 191.388 161.595 191.388 162.416C191.388 163.237 191.548 163.963 191.868 164.592C192.198 165.211 192.652 165.691 193.228 166.032C193.804 166.363 194.46 166.528 195.196 166.528ZM211.061 160.208H209.029V168H207.909V160.208H206.693V159.264H207.909V158.656C207.909 157.707 208.149 157.008 208.629 156.56C209.12 156.112 209.909 155.888 210.997 155.888V156.848C210.272 156.848 209.76 156.987 209.461 157.264C209.173 157.541 209.029 158.005 209.029 158.656V159.264H211.061V160.208ZM216.888 168.128C216.067 168.128 215.326 167.947 214.664 167.584C214.014 167.211 213.496 166.688 213.112 166.016C212.739 165.333 212.552 164.539 212.552 163.632C212.552 162.725 212.744 161.936 213.128 161.264C213.512 160.581 214.035 160.059 214.696 159.696C215.358 159.323 216.099 159.136 216.92 159.136C217.742 159.136 218.483 159.323 219.144 159.696C219.816 160.059 220.339 160.581 220.712 161.264C221.096 161.936 221.288 162.725 221.288 163.632C221.288 164.528 221.096 165.317 220.712 166C220.328 166.683 219.8 167.211 219.128 167.584C218.456 167.947 217.71 168.128 216.888 168.128ZM216.888 167.152C217.464 167.152 217.998 167.024 218.488 166.768C218.979 166.501 219.374 166.107 219.672 165.584C219.982 165.051 220.136 164.4 220.136 163.632C220.136 162.864 219.987 162.219 219.688 161.696C219.39 161.163 218.995 160.768 218.504 160.512C218.014 160.245 217.48 160.112 216.904 160.112C216.328 160.112 215.795 160.245 215.304 160.512C214.814 160.768 214.419 161.163 214.12 161.696C213.832 162.219 213.688 162.864 213.688 163.632C213.688 164.4 213.832 165.051 214.12 165.584C214.419 166.107 214.808 166.501 215.288 166.768C215.779 167.024 216.312 167.152 216.888 167.152ZM224.69 160.816C224.935 160.272 225.309 159.851 225.81 159.552C226.322 159.253 226.946 159.104 227.682 159.104V160.272H227.378C226.567 160.272 225.917 160.491 225.426 160.928C224.935 161.365 224.69 162.096 224.69 163.12V168H223.57V159.264H224.69V160.816ZM97.7294 183.104C98.7534 183.104 99.5854 183.429 100.225 184.08C100.876 184.72 101.201 185.653 101.201 186.88V192H100.097V187.008C100.097 186.059 99.868 185.333 99.4094 184.832C98.9507 184.331 98.3267 184.08 97.5374 184.08C96.716 184.08 96.06 184.352 95.5694 184.896C95.0787 185.44 94.8334 186.229 94.8334 187.264V192H93.7294V187.008C93.7294 186.059 93.5 185.333 93.0414 184.832C92.5827 184.331 91.9534 184.08 91.1534 184.08C90.332 184.08 89.676 184.352 89.1854 184.896C88.6947 185.44 88.4494 186.229 88.4494 187.264V192H87.3294V183.264H88.4494V184.768C88.7267 184.224 89.1214 183.813 89.6334 183.536C90.1454 183.248 90.716 183.104 91.3454 183.104C92.1027 183.104 92.764 183.285 93.3294 183.648C93.9054 184.011 94.3214 184.544 94.5774 185.248C94.812 184.555 95.212 184.027 95.7774 183.664C96.3534 183.291 97.004 183.104 97.7294 183.104ZM107.753 192.128C106.931 192.128 106.19 191.947 105.529 191.584C104.878 191.211 104.361 190.688 103.977 190.016C103.603 189.333 103.417 188.539 103.417 187.632C103.417 186.725 103.609 185.936 103.993 185.264C104.377 184.581 104.899 184.059 105.561 183.696C106.222 183.323 106.963 183.136 107.785 183.136C108.606 183.136 109.347 183.323 110.009 183.696C110.681 184.059 111.203 184.581 111.577 185.264C111.961 185.936 112.153 186.725 112.153 187.632C112.153 188.528 111.961 189.317 111.577 190C111.193 190.683 110.665 191.211 109.993 191.584C109.321 191.947 108.574 192.128 107.753 192.128ZM107.753 191.152C108.329 191.152 108.862 191.024 109.353 190.768C109.843 190.501 110.238 190.107 110.537 189.584C110.846 189.051 111.001 188.4 111.001 187.632C111.001 186.864 110.851 186.219 110.553 185.696C110.254 185.163 109.859 184.768 109.369 184.512C108.878 184.245 108.345 184.112 107.769 184.112C107.193 184.112 106.659 184.245 106.169 184.512C105.678 184.768 105.283 185.163 104.985 185.696C104.697 186.219 104.553 186.864 104.553 187.632C104.553 188.4 104.697 189.051 104.985 189.584C105.283 190.107 105.673 190.501 106.153 190.768C106.643 191.024 107.177 191.152 107.753 191.152ZM115.554 184.816C115.8 184.272 116.173 183.851 116.674 183.552C117.186 183.253 117.81 183.104 118.546 183.104V184.272H118.242C117.432 184.272 116.781 184.491 116.29 184.928C115.8 185.365 115.554 186.096 115.554 187.12V192H114.434V183.264H115.554V184.816ZM128.375 187.184C128.375 187.568 128.365 187.861 128.343 188.064H121.095C121.127 188.725 121.287 189.291 121.575 189.76C121.863 190.229 122.242 190.587 122.711 190.832C123.181 191.067 123.693 191.184 124.247 191.184C124.973 191.184 125.581 191.008 126.071 190.656C126.573 190.304 126.903 189.829 127.063 189.232H128.247C128.034 190.085 127.575 190.784 126.871 191.328C126.178 191.861 125.303 192.128 124.247 192.128C123.426 192.128 122.69 191.947 122.039 191.584C121.389 191.211 120.877 190.688 120.503 190.016C120.141 189.333 119.959 188.539 119.959 187.632C119.959 186.725 120.141 185.931 120.503 185.248C120.866 184.565 121.373 184.043 122.023 183.68C122.674 183.317 123.415 183.136 124.247 183.136C125.079 183.136 125.805 183.317 126.423 183.68C127.053 184.043 127.533 184.533 127.863 185.152C128.205 185.76 128.375 186.437 128.375 187.184ZM127.239 187.152C127.25 186.501 127.117 185.947 126.839 185.488C126.573 185.029 126.205 184.683 125.735 184.448C125.266 184.213 124.754 184.096 124.199 184.096C123.367 184.096 122.658 184.363 122.071 184.896C121.485 185.429 121.159 186.181 121.095 187.152H127.239ZM136.415 184.816C136.66 184.272 137.034 183.851 137.535 183.552C138.047 183.253 138.671 183.104 139.407 183.104V184.272H139.103C138.292 184.272 137.642 184.491 137.151 184.928C136.66 185.365 136.415 186.096 136.415 187.12V192H135.295V183.264H136.415V184.816ZM149.236 187.184C149.236 187.568 149.225 187.861 149.204 188.064H141.956C141.988 188.725 142.148 189.291 142.436 189.76C142.724 190.229 143.103 190.587 143.572 190.832C144.041 191.067 144.553 191.184 145.108 191.184C145.833 191.184 146.441 191.008 146.932 190.656C147.433 190.304 147.764 189.829 147.924 189.232H149.108C148.895 190.085 148.436 190.784 147.732 191.328C147.039 191.861 146.164 192.128 145.108 192.128C144.287 192.128 143.551 191.947 142.9 191.584C142.249 191.211 141.737 190.688 141.364 190.016C141.001 189.333 140.82 188.539 140.82 187.632C140.82 186.725 141.001 185.931 141.364 185.248C141.727 184.565 142.233 184.043 142.884 183.68C143.535 183.317 144.276 183.136 145.108 183.136C145.94 183.136 146.665 183.317 147.284 183.68C147.913 184.043 148.393 184.533 148.724 185.152C149.065 185.76 149.236 186.437 149.236 187.184ZM148.1 187.152C148.111 186.501 147.977 185.947 147.7 185.488C147.433 185.029 147.065 184.683 146.596 184.448C146.127 184.213 145.615 184.096 145.06 184.096C144.228 184.096 143.519 184.363 142.932 184.896C142.345 185.429 142.02 186.181 141.956 187.152H148.1ZM154.533 192.128C153.53 192.128 152.709 191.899 152.069 191.44C151.44 190.971 151.088 190.336 151.013 189.536H152.165C152.218 190.027 152.448 190.427 152.853 190.736C153.269 191.035 153.824 191.184 154.517 191.184C155.125 191.184 155.6 191.04 155.941 190.752C156.293 190.464 156.469 190.107 156.469 189.68C156.469 189.381 156.373 189.136 156.181 188.944C155.989 188.752 155.744 188.603 155.445 188.496C155.157 188.379 154.762 188.256 154.261 188.128C153.61 187.957 153.082 187.787 152.677 187.616C152.272 187.445 151.925 187.195 151.637 186.864C151.36 186.523 151.221 186.069 151.221 185.504C151.221 185.077 151.349 184.683 151.605 184.32C151.861 183.957 152.224 183.669 152.693 183.456C153.162 183.243 153.696 183.136 154.293 183.136C155.232 183.136 155.989 183.376 156.565 183.856C157.141 184.325 157.45 184.976 157.493 185.808H156.373C156.341 185.296 156.138 184.885 155.765 184.576C155.402 184.256 154.901 184.096 154.261 184.096C153.696 184.096 153.237 184.229 152.885 184.496C152.533 184.763 152.357 185.093 152.357 185.488C152.357 185.829 152.458 186.112 152.661 186.336C152.874 186.549 153.136 186.72 153.445 186.848C153.754 186.965 154.17 187.099 154.693 187.248C155.322 187.419 155.824 187.584 156.197 187.744C156.57 187.904 156.89 188.139 157.157 188.448C157.424 188.757 157.562 189.168 157.573 189.68C157.573 190.149 157.445 190.571 157.189 190.944C156.933 191.307 156.576 191.595 156.117 191.808C155.658 192.021 155.13 192.128 154.533 192.128ZM163.745 192.128C162.924 192.128 162.183 191.947 161.521 191.584C160.871 191.211 160.353 190.688 159.969 190.016C159.596 189.333 159.409 188.539 159.409 187.632C159.409 186.725 159.601 185.936 159.985 185.264C160.369 184.581 160.892 184.059 161.553 183.696C162.215 183.323 162.956 183.136 163.777 183.136C164.599 183.136 165.34 183.323 166.001 183.696C166.673 184.059 167.196 184.581 167.569 185.264C167.953 185.936 168.145 186.725 168.145 187.632C168.145 188.528 167.953 189.317 167.569 190C167.185 190.683 166.657 191.211 165.985 191.584C165.313 191.947 164.567 192.128 163.745 192.128ZM163.745 191.152C164.321 191.152 164.855 191.024 165.345 190.768C165.836 190.501 166.231 190.107 166.529 189.584C166.839 189.051 166.993 188.4 166.993 187.632C166.993 186.864 166.844 186.219 166.545 185.696C166.247 185.163 165.852 184.768 165.361 184.512C164.871 184.245 164.337 184.112 163.761 184.112C163.185 184.112 162.652 184.245 162.161 184.512C161.671 184.768 161.276 185.163 160.977 185.696C160.689 186.219 160.545 186.864 160.545 187.632C160.545 188.4 160.689 189.051 160.977 189.584C161.276 190.107 161.665 190.501 162.145 190.768C162.636 191.024 163.169 191.152 163.745 191.152ZM177.995 183.264V192H176.875V190.464C176.619 191.008 176.224 191.424 175.691 191.712C175.158 192 174.56 192.144 173.899 192.144C172.854 192.144 172 191.824 171.339 191.184C170.678 190.533 170.347 189.595 170.347 188.368V183.264H171.451V188.24C171.451 189.189 171.686 189.915 172.155 190.416C172.635 190.917 173.286 191.168 174.107 191.168C174.95 191.168 175.622 190.901 176.123 190.368C176.624 189.835 176.875 189.051 176.875 188.016V183.264H177.995ZM181.912 184.816C182.157 184.272 182.531 183.851 183.032 183.552C183.544 183.253 184.168 183.104 184.904 183.104V184.272H184.6C183.789 184.272 183.139 184.491 182.648 184.928C182.157 185.365 181.912 186.096 181.912 187.12V192H180.792V183.264H181.912V184.816ZM186.317 187.632C186.317 186.725 186.498 185.936 186.861 185.264C187.223 184.581 187.725 184.059 188.365 183.696C189.005 183.323 189.735 183.136 190.557 183.136C191.634 183.136 192.519 183.403 193.213 183.936C193.917 184.469 194.37 185.195 194.573 186.112H193.373C193.223 185.483 192.898 184.992 192.397 184.64C191.906 184.277 191.293 184.096 190.557 184.096C189.97 184.096 189.442 184.229 188.973 184.496C188.503 184.763 188.13 185.163 187.853 185.696C187.586 186.219 187.453 186.864 187.453 187.632C187.453 188.4 187.586 189.051 187.853 189.584C188.13 190.117 188.503 190.517 188.973 190.784C189.442 191.051 189.97 191.184 190.557 191.184C191.293 191.184 191.906 191.008 192.397 190.656C192.898 190.293 193.223 189.792 193.373 189.152H194.573C194.37 190.048 193.917 190.768 193.213 191.312C192.509 191.856 191.623 192.128 190.557 192.128C189.735 192.128 189.005 191.947 188.365 191.584C187.725 191.211 187.223 190.688 186.861 190.016C186.498 189.333 186.317 188.539 186.317 187.632ZM204.785 187.184C204.785 187.568 204.775 187.861 204.753 188.064H197.505C197.537 188.725 197.697 189.291 197.985 189.76C198.273 190.229 198.652 190.587 199.121 190.832C199.591 191.067 200.103 191.184 200.657 191.184C201.383 191.184 201.991 191.008 202.481 190.656C202.983 190.304 203.313 189.829 203.473 189.232H204.657C204.444 190.085 203.985 190.784 203.281 191.328C202.588 191.861 201.713 192.128 200.657 192.128C199.836 192.128 199.1 191.947 198.449 191.584C197.799 191.211 197.287 190.688 196.913 190.016C196.551 189.333 196.369 188.539 196.369 187.632C196.369 186.725 196.551 185.931 196.913 185.248C197.276 184.565 197.783 184.043 198.433 183.68C199.084 183.317 199.825 183.136 200.657 183.136C201.489 183.136 202.215 183.317 202.833 183.68C203.463 184.043 203.943 184.533 204.273 185.152C204.615 185.76 204.785 186.437 204.785 187.184ZM203.649 187.152C203.66 186.501 203.527 185.947 203.249 185.488C202.983 185.029 202.615 184.683 202.145 184.448C201.676 184.213 201.164 184.096 200.609 184.096C199.777 184.096 199.068 184.363 198.481 184.896C197.895 185.429 197.569 186.181 197.505 187.152H203.649ZM210.082 192.128C209.08 192.128 208.258 191.899 207.618 191.44C206.989 190.971 206.637 190.336 206.562 189.536H207.714C207.768 190.027 207.997 190.427 208.402 190.736C208.818 191.035 209.373 191.184 210.066 191.184C210.674 191.184 211.149 191.04 211.49 190.752C211.842 190.464 212.018 190.107 212.018 189.68C212.018 189.381 211.922 189.136 211.73 188.944C211.538 188.752 211.293 188.603 210.994 188.496C210.706 188.379 210.312 188.256 209.81 188.128C209.16 187.957 208.632 187.787 208.226 187.616C207.821 187.445 207.474 187.195 207.186 186.864C206.909 186.523 206.77 186.069 206.77 185.504C206.77 185.077 206.898 184.683 207.154 184.32C207.41 183.957 207.773 183.669 208.242 183.456C208.712 183.243 209.245 183.136 209.842 183.136C210.781 183.136 211.538 183.376 212.114 183.856C212.69 184.325 213 184.976 213.042 185.808H211.922C211.89 185.296 211.688 184.885 211.314 184.576C210.952 184.256 210.45 184.096 209.81 184.096C209.245 184.096 208.786 184.229 208.434 184.496C208.082 184.763 207.906 185.093 207.906 185.488C207.906 185.829 208.008 186.112 208.21 186.336C208.424 186.549 208.685 186.72 208.994 186.848C209.304 186.965 209.72 187.099 210.242 187.248C210.872 187.419 211.373 187.584 211.746 187.744C212.12 187.904 212.44 188.139 212.706 188.448C212.973 188.757 213.112 189.168 213.122 189.68C213.122 190.149 212.994 190.571 212.738 190.944C212.482 191.307 212.125 191.595 211.666 191.808C211.208 192.021 210.68 192.128 210.082 192.128Z" fill="black"/>
<g filter="url(#filter1_d_328_8640)">
<rect x="85.5" y="218" width="129" height="44" rx="6" fill="#FFC60B" shape-rendering="crispEdges"/>
<path d="M114.625 246.112C113.846 246.112 113.142 245.979 112.513 245.712C111.894 245.445 111.404 245.061 111.041 244.56C110.678 244.059 110.492 243.467 110.481 242.784H112.881C112.913 243.243 113.073 243.605 113.361 243.872C113.66 244.139 114.065 244.272 114.577 244.272C115.1 244.272 115.51 244.149 115.809 243.904C116.108 243.648 116.257 243.317 116.257 242.912C116.257 242.581 116.156 242.309 115.953 242.096C115.75 241.883 115.494 241.717 115.185 241.6C114.886 241.472 114.47 241.333 113.937 241.184C113.212 240.971 112.62 240.763 112.161 240.56C111.713 240.347 111.324 240.032 110.993 239.616C110.673 239.189 110.513 238.624 110.513 237.92C110.513 237.259 110.678 236.683 111.009 236.192C111.34 235.701 111.804 235.328 112.401 235.072C112.998 234.805 113.681 234.672 114.449 234.672C115.601 234.672 116.534 234.955 117.249 235.52C117.974 236.075 118.374 236.853 118.449 237.856H115.985C115.964 237.472 115.798 237.157 115.489 236.912C115.19 236.656 114.79 236.528 114.289 236.528C113.852 236.528 113.5 236.64 113.233 236.864C112.977 237.088 112.849 237.413 112.849 237.84C112.849 238.139 112.945 238.389 113.137 238.592C113.34 238.784 113.585 238.944 113.873 239.072C114.172 239.189 114.588 239.328 115.121 239.488C115.846 239.701 116.438 239.915 116.897 240.128C117.356 240.341 117.75 240.661 118.081 241.088C118.412 241.515 118.577 242.075 118.577 242.768C118.577 243.365 118.422 243.92 118.113 244.432C117.804 244.944 117.35 245.355 116.753 245.664C116.156 245.963 115.446 246.112 114.625 246.112ZM128.999 241.376C128.999 241.696 128.978 241.984 128.935 242.24H122.455C122.508 242.88 122.732 243.381 123.127 243.744C123.522 244.107 124.007 244.288 124.583 244.288C125.415 244.288 126.007 243.931 126.359 243.216H128.775C128.519 244.069 128.028 244.773 127.303 245.328C126.578 245.872 125.687 246.144 124.631 246.144C123.778 246.144 123.01 245.957 122.327 245.584C121.655 245.2 121.127 244.661 120.743 243.968C120.37 243.275 120.183 242.475 120.183 241.568C120.183 240.651 120.37 239.845 120.743 239.152C121.116 238.459 121.639 237.925 122.311 237.552C122.983 237.179 123.756 236.992 124.631 236.992C125.474 236.992 126.226 237.173 126.887 237.536C127.559 237.899 128.076 238.416 128.439 239.088C128.812 239.749 128.999 240.512 128.999 241.376ZM126.679 240.736C126.668 240.16 126.46 239.701 126.055 239.36C125.65 239.008 125.154 238.832 124.567 238.832C124.012 238.832 123.543 239.003 123.159 239.344C122.786 239.675 122.556 240.139 122.471 240.736H126.679ZM139.114 241.376C139.114 241.696 139.093 241.984 139.05 242.24H132.57C132.623 242.88 132.847 243.381 133.242 243.744C133.637 244.107 134.122 244.288 134.698 244.288C135.53 244.288 136.122 243.931 136.474 243.216H138.89C138.634 244.069 138.143 244.773 137.418 245.328C136.693 245.872 135.802 246.144 134.746 246.144C133.893 246.144 133.125 245.957 132.442 245.584C131.77 245.2 131.242 244.661 130.858 243.968C130.485 243.275 130.298 242.475 130.298 241.568C130.298 240.651 130.485 239.845 130.858 239.152C131.231 238.459 131.754 237.925 132.426 237.552C133.098 237.179 133.871 236.992 134.746 236.992C135.589 236.992 136.341 237.173 137.002 237.536C137.674 237.899 138.191 238.416 138.554 239.088C138.927 239.749 139.114 240.512 139.114 241.376ZM136.794 240.736C136.783 240.16 136.575 239.701 136.17 239.36C135.765 239.008 135.269 238.832 134.682 238.832C134.127 238.832 133.658 239.003 133.274 239.344C132.901 239.675 132.671 240.139 132.586 240.736H136.794ZM147.282 238.416C147.57 238.011 147.964 237.675 148.466 237.408C148.978 237.131 149.559 236.992 150.21 236.992C150.967 236.992 151.65 237.179 152.258 237.552C152.876 237.925 153.362 238.459 153.714 239.152C154.076 239.835 154.258 240.629 154.258 241.536C154.258 242.443 154.076 243.248 153.714 243.952C153.362 244.645 152.876 245.184 152.258 245.568C151.65 245.952 150.967 246.144 150.21 246.144C149.559 246.144 148.983 246.011 148.482 245.744C147.991 245.477 147.591 245.141 147.282 244.736V250.224H145.042V237.136H147.282V238.416ZM151.97 241.536C151.97 241.003 151.858 240.544 151.634 240.16C151.42 239.765 151.132 239.467 150.77 239.264C150.418 239.061 150.034 238.96 149.618 238.96C149.212 238.96 148.828 239.067 148.466 239.28C148.114 239.483 147.826 239.781 147.602 240.176C147.388 240.571 147.282 241.035 147.282 241.568C147.282 242.101 147.388 242.565 147.602 242.96C147.826 243.355 148.114 243.659 148.466 243.872C148.828 244.075 149.212 244.176 149.618 244.176C150.034 244.176 150.418 244.069 150.77 243.856C151.132 243.643 151.42 243.339 151.634 242.944C151.858 242.549 151.97 242.08 151.97 241.536ZM158.365 234.16V246H156.125V234.16H158.365ZM160.242 241.536C160.242 240.64 160.418 239.845 160.77 239.152C161.133 238.459 161.618 237.925 162.226 237.552C162.845 237.179 163.533 236.992 164.29 236.992C164.952 236.992 165.528 237.125 166.018 237.392C166.52 237.659 166.92 237.995 167.218 238.4V237.136H169.474V246H167.218V244.704C166.93 245.12 166.53 245.467 166.018 245.744C165.517 246.011 164.936 246.144 164.274 246.144C163.528 246.144 162.845 245.952 162.226 245.568C161.618 245.184 161.133 244.645 160.77 243.952C160.418 243.248 160.242 242.443 160.242 241.536ZM167.218 241.568C167.218 241.024 167.112 240.56 166.898 240.176C166.685 239.781 166.397 239.483 166.034 239.28C165.672 239.067 165.282 238.96 164.866 238.96C164.45 238.96 164.066 239.061 163.714 239.264C163.362 239.467 163.074 239.765 162.85 240.16C162.637 240.544 162.53 241.003 162.53 241.536C162.53 242.069 162.637 242.539 162.85 242.944C163.074 243.339 163.362 243.643 163.714 243.856C164.077 244.069 164.461 244.176 164.866 244.176C165.282 244.176 165.672 244.075 166.034 243.872C166.397 243.659 166.685 243.36 166.898 242.976C167.112 242.581 167.218 242.112 167.218 241.568ZM176.814 237.008C177.87 237.008 178.723 237.344 179.374 238.016C180.025 238.677 180.35 239.605 180.35 240.8V246H178.11V241.104C178.11 240.4 177.934 239.861 177.582 239.488C177.23 239.104 176.75 238.912 176.142 238.912C175.523 238.912 175.033 239.104 174.67 239.488C174.318 239.861 174.142 240.4 174.142 241.104V246H171.902V237.136H174.142V238.24C174.441 237.856 174.819 237.557 175.278 237.344C175.747 237.12 176.259 237.008 176.814 237.008ZM186.112 246.144C185.387 246.144 184.736 246.016 184.16 245.76C183.584 245.493 183.126 245.136 182.784 244.688C182.454 244.24 182.272 243.744 182.24 243.2H184.496C184.539 243.541 184.704 243.824 184.992 244.048C185.291 244.272 185.659 244.384 186.096 244.384C186.523 244.384 186.854 244.299 187.088 244.128C187.334 243.957 187.456 243.739 187.456 243.472C187.456 243.184 187.307 242.971 187.008 242.832C186.72 242.683 186.256 242.523 185.616 242.352C184.955 242.192 184.411 242.027 183.984 241.856C183.568 241.685 183.206 241.424 182.896 241.072C182.598 240.72 182.448 240.245 182.448 239.648C182.448 239.157 182.587 238.709 182.864 238.304C183.152 237.899 183.558 237.579 184.08 237.344C184.614 237.109 185.238 236.992 185.952 236.992C187.008 236.992 187.851 237.259 188.48 237.792C189.11 238.315 189.456 239.024 189.52 239.92H187.376C187.344 239.568 187.195 239.291 186.928 239.088C186.672 238.875 186.326 238.768 185.888 238.768C185.483 238.768 185.168 238.843 184.944 238.992C184.731 239.141 184.624 239.349 184.624 239.616C184.624 239.915 184.774 240.144 185.072 240.304C185.371 240.453 185.835 240.608 186.464 240.768C187.104 240.928 187.632 241.093 188.048 241.264C188.464 241.435 188.822 241.701 189.12 242.064C189.43 242.416 189.59 242.885 189.6 243.472C189.6 243.984 189.456 244.443 189.168 244.848C188.891 245.253 188.486 245.573 187.952 245.808C187.43 246.032 186.816 246.144 186.112 246.144Z" fill="#181818"/>
</g>
</g>
<defs>
<filter id="filter0_f_328_8640" x="-244" y="-180.044" width="335.411" height="420.433" filterUnits="userSpaceOnUse" color-interpolation-filters="sRGB">
<feFlood flood-opacity="0" result="BackgroundImageFix"/>
<feBlend mode="normal" in="SourceGraphic" in2="BackgroundImageFix" result="shape"/>
<feGaussianBlur stdDeviation="17" result="effect1_foregroundBlur_328_8640"/>
</filter>
<filter id="filter1_d_328_8640" x="80.5" y="217" width="139" height="54" filterUnits="userSpaceOnUse" color-interpolation-filters="sRGB">
<feFlood flood-opacity="0" result="BackgroundImageFix"/>
<feColorMatrix in="SourceAlpha" type="matrix" values="0 0 0 0 0 0 0 0 0 0 0 0 0 0 0 0 0 0 127 0" result="hardAlpha"/>
<feOffset dy="4"/>
<feGaussianBlur stdDeviation="2.5"/>
<feComposite in2="hardAlpha" operator="out"/>
<feColorMatrix type="matrix" values="0 0 0 0 0 0 0 0 0 0 0 0 0 0 0 0 0 0 0.12 0"/>
<feBlend mode="normal" in2="BackgroundImageFix" result="effect1_dropShadow_328_8640"/>
<feBlend mode="normal" in="SourceGraphic" in2="effect1_dropShadow_328_8640" result="shape"/>
</filter>
<linearGradient id="paint0_linear_328_8640" x1="276.6" y1="2.46424e-05" x2="43.3605" y2="292" gradientUnits="userSpaceOnUse">
<stop stop-color="#FF8400" stop-opacity="0.22"/>
<stop offset="0.729167" stop-color="#FFEAA5"/>
</linearGradient>
<clipPath id="clip0_328_8640">
<rect width="300" height="292" fill="white"/>
</clipPath>
</defs>
</svg>
