<svg width="24" height="24" viewBox="0 0 24 24" fill="none" xmlns="http://www.w3.org/2000/svg">
<g clip-path="url(#clip0_68_2012)">
<path d="M23.7144 12.2259C23.7144 11.2426 23.6346 10.5251 23.4619 9.78101H12.2339V14.2189H18.8245C18.6917 15.3219 17.9741 16.9828 16.3796 18.0989L16.3572 18.2475L19.9073 20.9977L20.1533 21.0222C22.4122 18.9361 23.7144 15.8667 23.7144 12.2259Z" fill="#4285F4"/>
<path d="M12.2338 23.9177C15.4626 23.9177 18.1733 22.8547 20.1532 21.0209L16.3795 18.0976C15.3696 18.8019 14.0143 19.2935 12.2338 19.2935C9.07138 19.2935 6.38731 17.2075 5.43051 14.324L5.29025 14.3359L1.59881 17.1927L1.55054 17.327C3.51709 21.2335 7.55654 23.9177 12.2338 23.9177Z" fill="#34A853"/>
<path d="M5.43041 14.3251C5.17795 13.581 5.03185 12.7837 5.03185 11.96C5.03185 11.1361 5.17795 10.3389 5.41713 9.59476L5.41044 9.43629L1.67277 6.53357L1.55047 6.59173C0.739971 8.21284 0.274902 10.0333 0.274902 11.96C0.274902 13.8866 0.739971 15.7069 1.55047 17.3281L5.43041 14.3251Z" fill="#FBBC05"/>
<path d="M12.2338 4.62403C14.4793 4.62403 15.9941 5.59402 16.8577 6.40462L20.2327 3.10928C18.16 1.1826 15.4626 0 12.2338 0C7.55649 0 3.51707 2.68406 1.55054 6.59057L5.4172 9.59359C6.38727 6.7102 9.07133 4.62403 12.2338 4.62403Z" fill="#EB4335"/>
</g>
<defs>
<clipPath id="clip0_68_2012">
<rect width="24" height="24" fill="white"/>
</clipPath>
</defs>
</svg>
