<svg width="48" height="48" viewBox="0 0 48 48" fill="none" xmlns="http://www.w3.org/2000/svg">
<g filter="url(#filter0_d_326_7850)">
<rect x="4" width="40" height="40" rx="20" fill="#FFC60B" shape-rendering="crispEdges"/>
<g filter="url(#filter1_d_326_7850)">
<path fill-rule="evenodd" clip-rule="evenodd" d="M24 26.25C26.7614 26.25 29 24.0114 29 21.25C29 18.4886 26.7614 16.25 24 16.25C21.2386 16.25 19 18.4886 19 21.25C19 24.0114 21.2386 26.25 24 26.25ZM24 24.375C25.7259 24.375 27.125 22.9759 27.125 21.25C27.125 19.5241 25.7259 18.125 24 18.125C22.2741 18.125 20.875 19.5241 20.875 21.25C20.875 22.9759 22.2741 24.375 24 24.375Z" fill="#181818"/>
<path d="M31.5 16.25C31.5 16.9404 30.9404 17.5 30.25 17.5C29.5596 17.5 29 16.9404 29 16.25C29 15.5596 29.5596 15 30.25 15C30.9404 15 31.5 15.5596 31.5 16.25Z" fill="#181818"/>
<path fill-rule="evenodd" clip-rule="evenodd" d="M27.6712 11.875C27.7227 12.0748 27.75 12.2842 27.75 12.5V12.5056H29V11.875C29 11.5298 29.2798 11.25 29.625 11.25H30.875C31.2202 11.25 31.5 11.5298 31.5 11.875V12.5056C34.2614 12.5056 36.5 14.7442 36.5 17.5056V25C36.5 27.7614 34.2614 30 31.5 30H16.5C13.7386 30 11.5 27.7614 11.5 25V17.5056C11.5 15.1758 13.0935 13.2182 15.25 12.6631V12.5C15.25 12.2842 15.2773 12.0748 15.3288 11.875C15.6063 10.7967 16.5851 10 17.75 10H25.25C26.4149 10 27.3937 10.7967 27.6712 11.875ZM31.5 14.3806H16.5C14.7741 14.3806 13.375 15.7797 13.375 17.5056V25C13.375 26.7259 14.7741 28.125 16.5 28.125H31.5C33.2259 28.125 34.625 26.7259 34.625 25V17.5056C34.625 15.7797 33.2259 14.3806 31.5 14.3806Z" fill="#181818"/>
</g>
</g>
<defs>
<filter id="filter0_d_326_7850" x="0" y="0" width="48" height="48" filterUnits="userSpaceOnUse" color-interpolation-filters="sRGB">
<feFlood flood-opacity="0" result="BackgroundImageFix"/>
<feColorMatrix in="SourceAlpha" type="matrix" values="0 0 0 0 0 0 0 0 0 0 0 0 0 0 0 0 0 0 127 0" result="hardAlpha"/>
<feOffset dy="4"/>
<feGaussianBlur stdDeviation="2"/>
<feComposite in2="hardAlpha" operator="out"/>
<feColorMatrix type="matrix" values="0 0 0 0 0 0 0 0 0 0 0 0 0 0 0 0 0 0 0.25 0"/>
<feBlend mode="normal" in2="BackgroundImageFix" result="effect1_dropShadow_326_7850"/>
<feBlend mode="normal" in="SourceGraphic" in2="effect1_dropShadow_326_7850" result="shape"/>
</filter>
<filter id="filter1_d_326_7850" x="1" y="0" width="38" height="38" filterUnits="userSpaceOnUse" color-interpolation-filters="sRGB">
<feFlood flood-opacity="0" result="BackgroundImageFix"/>
<feColorMatrix in="SourceAlpha" type="matrix" values="0 0 0 0 0 0 0 0 0 0 0 0 0 0 0 0 0 0 127 0" result="hardAlpha"/>
<feOffset dx="-4" dy="-1"/>
<feGaussianBlur stdDeviation="2"/>
<feComposite in2="hardAlpha" operator="out"/>
<feColorMatrix type="matrix" values="0 0 0 0 0 0 0 0 0 0 0 0 0 0 0 0 0 0 0.05 0"/>
<feBlend mode="normal" in2="BackgroundImageFix" result="effect1_dropShadow_326_7850"/>
<feBlend mode="normal" in="SourceGraphic" in2="effect1_dropShadow_326_7850" result="shape"/>
</filter>
</defs>
</svg>
