<svg width="18" height="18" viewBox="0 0 18 18" fill="none" xmlns="http://www.w3.org/2000/svg">
<path d="M0.357965 0.357965C-0.119322 0.835252 -0.119321 1.60909 0.357965 2.08637L7.27159 9L0.357965 15.9136C-0.119321 16.3909 -0.119322 17.1647 0.357965 17.642C0.835252 18.1193 1.60909 18.1193 2.08637 17.642L9 10.7284L15.9136 17.642C16.3909 18.1193 17.1647 18.1193 17.642 17.642C18.1193 17.1647 18.1193 16.3909 17.642 15.9136L10.7284 9L17.642 2.08637C18.1193 1.60909 18.1193 0.835252 17.642 0.357965C17.1647 -0.119322 16.3909 -0.119321 15.9136 0.357965L9 7.27159L2.08637 0.357965C1.60909 -0.119321 0.835252 -0.119322 0.357965 0.357965Z" fill="#181818"/>
</svg>
