<svg width="24" height="24" viewBox="0 0 24 24" fill="none" xmlns="http://www.w3.org/2000/svg">
<path d="M12.592 13.0001L10.292 15.2901C10.1982 15.3831 10.1238 15.4937 10.0731 15.6155C10.0223 15.7374 9.99615 15.8681 9.99615 16.0001C9.99615 16.1321 10.0223 16.2628 10.0731 16.3847C10.1238 16.5065 10.1982 16.6171 10.292 16.7101C10.3849 16.8038 10.4955 16.8782 10.6174 16.929C10.7392 16.9798 10.8699 17.0059 11.002 17.0059C11.134 17.0059 11.2647 16.9798 11.3865 16.929C11.5084 16.8782 11.619 16.8038 11.712 16.7101L15.712 12.7101C15.803 12.615 15.8744 12.5029 15.922 12.3801C16.022 12.1366 16.022 11.8636 15.922 11.6201C15.8744 11.4973 15.803 11.3852 15.712 11.2901L11.712 7.2901C11.6187 7.19686 11.508 7.1229 11.3862 7.07244C11.2644 7.02198 11.1338 6.99601 11.002 6.99601C10.8701 6.99601 10.7395 7.02198 10.6177 7.07244C10.4959 7.1229 10.3852 7.19686 10.292 7.2901C10.1987 7.38334 10.1248 7.49403 10.0743 7.61585C10.0238 7.73767 9.99786 7.86824 9.99786 8.0001C9.99786 8.13196 10.0238 8.26253 10.0743 8.38435C10.1248 8.50617 10.1987 8.61686 10.292 8.7101L12.592 11.0001H3.00195C2.73674 11.0001 2.48238 11.1055 2.29485 11.293C2.10731 11.4805 2.00195 11.7349 2.00195 12.0001C2.00195 12.2653 2.10731 12.5197 2.29485 12.7072C2.48238 12.8947 2.73674 13.0001 3.00195 13.0001H12.592ZM12.002 2.0001C10.133 1.99176 8.2992 2.50731 6.70842 3.48829C5.11764 4.46927 3.83361 5.87641 3.00195 7.5501C2.88261 7.78879 2.86297 8.06512 2.94736 8.3183C3.03175 8.57147 3.21326 8.78075 3.45195 8.9001C3.69065 9.01945 3.96698 9.03909 4.22015 8.95469C4.47333 8.8703 4.68261 8.68879 4.80195 8.4501C5.43414 7.17342 6.39579 6.08872 7.5875 5.30809C8.77922 4.52746 10.1578 4.07922 11.5807 4.00969C13.0036 3.94017 14.4193 4.25188 15.6815 4.91261C16.9436 5.57334 18.0064 6.55913 18.7601 7.7681C19.5137 8.97706 19.9308 10.3653 19.9684 11.7895C20.0059 13.2136 19.6624 14.6219 18.9735 15.8689C18.2845 17.1159 17.2751 18.1563 16.0495 18.8825C14.8239 19.6088 13.4266 19.9946 12.002 20.0001C10.5108 20.0066 9.04811 19.5925 7.78164 18.8053C6.51518 18.0182 5.49631 16.89 4.84195 15.5501C4.72261 15.3114 4.51333 15.1299 4.26015 15.0455C4.00698 14.9611 3.73065 14.9808 3.49195 15.1001C3.25326 15.2194 3.07175 15.4287 2.98736 15.6819C2.90297 15.9351 2.92261 16.2114 3.04195 16.4501C3.83478 18.0456 5.03947 19.4003 6.53142 20.3741C8.02337 21.348 9.7484 21.9055 11.5281 21.9891C13.3077 22.0727 15.0774 21.6793 16.6541 20.8496C18.2308 20.0199 19.5571 18.7841 20.496 17.2699C21.4349 15.7558 21.9522 14.0182 21.9944 12.2371C22.0367 10.456 21.6023 8.69589 20.7362 7.13893C19.8701 5.58197 18.6038 4.28467 17.0682 3.38121C15.5326 2.47774 13.7836 2.00094 12.002 2.0001Z" fill="#181818"/>
</svg>
