<svg width="20" height="21" viewBox="0 0 20 21" fill="none" xmlns="http://www.w3.org/2000/svg">
<path fill-rule="evenodd" clip-rule="evenodd" d="M19.9959 5.99991V19.9999C19.9959 20.2761 19.7721 20.4999 19.4959 20.4999H16.5C16.2239 20.4999 16 20.2761 16 19.9999V5.99991C16 5.72377 16.2239 5.49991 16.5 5.49991H19.4959C19.7721 5.49991 19.9959 5.72377 19.9959 5.99991ZM17.248 7.49991H18.748V8.99991H17.248V7.49991ZM18.748 10.4999H17.248V11.9999H18.748V10.4999ZM17.248 13.4999H18.748V14.9999H17.248V13.4999ZM18.748 16.4999H17.248V17.9999H18.748V16.4999Z" fill="#9F9F9F"/>
<path fill-rule="evenodd" clip-rule="evenodd" d="M5 19.9999V3.78301C5 3.60737 5.09215 3.44462 5.24275 3.35426L9.74275 0.654261C9.90109 0.559257 10.0989 0.559257 10.2572 0.654261L14.7572 3.35426C14.9079 3.44462 15 3.60738 15 3.78301V19.9999C15 20.2761 14.7761 20.4999 14.5 20.4999H12V15.7267C12 15.5826 11.9379 15.4444 11.8271 15.3522C10.4409 14.1976 9.5644 14.2314 8.17637 15.3517C8.06189 15.4441 7.99707 15.5848 7.99707 15.7319V20.4999H5.5C5.22386 20.4999 5 20.2761 5 19.9999ZM11.5 3.99991C11.5 4.82834 10.8284 5.49991 10 5.49991C9.17157 5.49991 8.5 4.82834 8.5 3.99991C8.5 3.17148 9.17157 2.49991 10 2.49991C10.8284 2.49991 11.5 3.17148 11.5 3.99991ZM8 6.49991H6V8.49991H8V6.49991ZM11 6.49991V8.49991H9V6.49991H11ZM14 6.49991H12V8.49991H14V6.49991Z" fill="#9F9F9F"/>
<path fill-rule="evenodd" clip-rule="evenodd" d="M3.99593 5.99991V19.9999C3.99593 20.2761 3.77207 20.4999 3.49593 20.4999H0.5C0.223858 20.4999 0 20.2761 0 19.9999V5.99991C0 5.72377 0.223858 5.49991 0.5 5.49991H3.49593C3.77207 5.49991 3.99593 5.72377 3.99593 5.99991ZM1.24805 7.49991H2.74805V8.99991H1.24805V7.49991ZM2.74805 10.4999H1.24805V11.9999H2.74805V10.4999ZM1.24805 13.4999H2.74805V14.9999H1.24805V13.4999ZM2.74805 16.4999H1.24805V17.9999H2.74805V16.4999Z" fill="#9F9F9F"/>
</svg>
