<?xml version="1.0" encoding="UTF-8"?>
<svg version="1.1" xmlns="http://www.w3.org/2000/svg" width="1000" height="998">
<path d="M0 0 C330 0 660 0 1000 0 C1000 329.34 1000 658.68 1000 998 C670 998 340 998 0 998 C0 668.66 0 339.32 0 0 Z " fill="#F3F4F6" transform="translate(0,0)"/>
<path d="M0 0 C1.61256119 -0.01265991 1.61256119 -0.01265991 3.25769937 -0.02557558 C5.02047249 -0.01656051 5.02047249 -0.01656051 6.81885719 -0.00736332 C8.07184093 -0.01274886 9.32482467 -0.01813439 10.61577761 -0.02368313 C14.0913243 -0.03815219 17.56663415 -0.03388855 21.04219389 -0.02651632 C24.79144557 -0.02179048 28.54064558 -0.03428936 32.28988075 -0.04453373 C39.6342678 -0.06173901 46.97856936 -0.06255811 54.32297133 -0.05732083 C60.29248103 -0.05328084 66.26196544 -0.05472065 72.23147392 -0.06006908 C73.50548001 -0.06119172 73.50548001 -0.06119172 74.80522359 -0.06233703 C76.53061481 -0.0638685 78.25600602 -0.06540684 79.98139723 -0.066952 C96.16596577 -0.08068348 112.350486 -0.07523497 128.53505345 -0.06376678 C143.34163355 -0.05383537 158.14808867 -0.06677233 172.95464949 -0.09070098 C188.15691143 -0.11508404 203.35911514 -0.1247017 218.56139624 -0.11804825 C227.09675074 -0.11455405 235.63200913 -0.11680123 244.16734886 -0.13429928 C251.43394275 -0.14901142 258.70037287 -0.14966978 265.96696351 -0.13222837 C269.67420587 -0.12370745 273.38115552 -0.12159509 277.08838272 -0.13687992 C281.10807249 -0.15324776 285.12705415 -0.13859945 289.14673805 -0.12088871 C290.31745869 -0.13049372 291.48817933 -0.14009872 292.69437635 -0.14999479 C299.19543584 -0.09093169 303.422197 0.31171007 308.60978127 4.38031673 C312.28099439 8.60182507 312.03623403 12.85265756 311.99746132 18.17937374 C312.00553963 19.50862813 312.00553963 19.50862813 312.01378113 20.86473614 C312.02808878 23.83418225 312.02095002 26.80318435 312.013834 29.77265072 C312.01953609 31.90156062 312.02649972 34.03046746 312.03463173 36.15936947 C312.0525959 41.94239365 312.05138861 47.72526636 312.04568934 53.50831008 C312.04260225 58.33451403 312.0486846 63.16068868 312.05472809 67.98688847 C312.06878238 79.37139253 312.06720445 90.75582156 312.05582619 102.1403265 C312.0443434 113.88911161 312.05842142 125.6376685 312.08522266 137.38642353 C312.1073663 147.47062745 312.11402006 157.55475966 312.10814625 167.63898617 C312.10477237 173.66312884 312.10722048 179.68712519 312.12439728 185.71124744 C312.13984297 191.37562376 312.13593703 197.03966149 312.11709213 202.70402431 C312.11339972 204.78331912 312.11653364 206.86263889 312.12697792 208.94191074 C312.14014464 211.77975812 312.12867847 214.61647747 312.11098671 217.45427608 C312.12059172 218.27772422 312.13019672 219.10117235 312.14009279 219.94957346 C312.07240585 225.22394775 311.13221515 228.22332536 307.60978127 232.38031673 C306.62763224 233.54022751 306.62763224 233.54022751 305.62564182 234.72357082 C300.74450625 237.404995 295.83325965 236.92967758 290.35601234 236.8882513 C288.46935306 236.89761125 288.46935306 236.89761125 286.54457945 236.90716028 C283.05562991 236.92386582 279.56711776 236.915602 276.0781666 236.90321541 C272.3146115 236.89417202 268.55113205 236.90813115 264.78759193 236.91913509 C257.41543781 236.93693309 250.04344647 236.93307452 242.67128593 236.92148453 C236.67983305 236.91245481 230.68842582 236.91122421 224.69696808 236.9155798 C223.41836587 236.91649919 223.41836587 236.91649919 222.11393331 236.91743717 C220.38233935 236.91871606 218.65074541 236.92001291 216.91915148 236.92132753 C200.67689063 236.93273725 184.43472004 236.91961384 168.192474 236.89812607 C154.25478966 236.88025793 140.31723859 236.88335607 126.37955666 236.90180111 C110.19738569 236.92320644 94.01529389 236.9316352 77.83311075 236.91935205 C76.10754392 236.91807785 74.38197707 236.91682037 72.65641022 236.9155798 C71.80738347 236.91496269 70.95835672 236.91434559 70.08360188 236.91370979 C64.09960844 236.91025564 58.1156652 236.91608671 52.13167953 236.92549801 C44.83869832 236.93671577 37.54588933 236.93368283 30.25292785 236.91237503 C26.53163873 236.90186102 22.81063675 236.89774846 19.08934975 236.91097164 C15.05616102 236.92508636 11.02369755 236.90823553 6.99053383 236.8882513 C5.8130094 236.89717419 4.63548497 236.90609708 3.42227799 236.91529036 C-2.62826372 236.85694673 -6.77552461 236.74082946 -11.39021873 232.38031673 C-15.01896369 228.07138439 -14.81683113 223.91714796 -14.77789879 218.54329586 C-14.7859771 217.20791614 -14.7859771 217.20791614 -14.7942186 215.84555906 C-14.80852677 212.86229408 -14.80138736 209.87947102 -14.79427147 206.89618587 C-14.79997353 204.7574239 -14.80693715 202.61866497 -14.8150692 200.47991085 C-14.83303367 194.67002823 -14.83182603 188.86029637 -14.82612681 183.0503943 C-14.82303976 178.20182244 -14.82912202 173.35327975 -14.83516556 168.50471205 C-14.84921995 157.06747039 -14.84764184 145.63030341 -14.83626366 134.19306087 C-14.82478085 122.38974459 -14.8388589 110.58665547 -14.86566013 98.78336912 C-14.88780358 88.65245654 -14.89445758 78.52161533 -14.88858372 68.39068025 C-14.88520979 62.33859216 -14.88765826 56.28664972 -14.90483475 50.23458195 C-14.92028013 44.54394134 -14.91637485 38.85363777 -14.8975296 33.1630106 C-14.8938371 31.07404044 -14.89697136 28.98504545 -14.90741539 26.89609814 C-14.9205815 24.04511535 -14.90911645 21.1952555 -14.89142418 18.34432125 C-14.90102919 17.51698217 -14.91063419 16.68964309 -14.92053026 15.83723313 C-14.85330588 10.57504331 -13.96266323 7.49473373 -10.39021873 3.38031673 C-6.81132717 0.83403067 -4.37404345 0.00485647 0 0 Z " fill="#EEEFF1" transform="translate(351.3902187347412,381.61968326568604)"/>
<path d="M0 0 C1.61256119 -0.01265991 1.61256119 -0.01265991 3.25769937 -0.02557558 C5.02047249 -0.01656051 5.02047249 -0.01656051 6.81885719 -0.00736332 C8.07184093 -0.01274886 9.32482467 -0.01813439 10.61577761 -0.02368313 C14.0913243 -0.03815219 17.56663415 -0.03388855 21.04219389 -0.02651632 C24.79144557 -0.02179048 28.54064558 -0.03428936 32.28988075 -0.04453373 C39.6342678 -0.06173901 46.97856936 -0.06255811 54.32297133 -0.05732083 C60.29248103 -0.05328084 66.26196544 -0.05472065 72.23147392 -0.06006908 C73.50548001 -0.06119172 73.50548001 -0.06119172 74.80522359 -0.06233703 C76.53061481 -0.0638685 78.25600602 -0.06540684 79.98139723 -0.066952 C96.16596577 -0.08068348 112.350486 -0.07523497 128.53505345 -0.06376678 C143.34163355 -0.05383537 158.14808867 -0.06677233 172.95464949 -0.09070098 C188.15691143 -0.11508404 203.35911514 -0.1247017 218.56139624 -0.11804825 C227.09675074 -0.11455405 235.63200913 -0.11680123 244.16734886 -0.13429928 C251.43394275 -0.14901142 258.70037287 -0.14966978 265.96696351 -0.13222837 C269.67420587 -0.12370745 273.38115552 -0.12159509 277.08838272 -0.13687992 C281.10807249 -0.15324776 285.12705415 -0.13859945 289.14673805 -0.12088871 C290.31745869 -0.13049372 291.48817933 -0.14009872 292.69437635 -0.14999479 C299.19543584 -0.09093169 303.422197 0.31171007 308.60978127 4.38031673 C312.28099439 8.60182507 312.03623403 12.85265756 311.99746132 18.17937374 C312.00553963 19.50862813 312.00553963 19.50862813 312.01378113 20.86473614 C312.02808878 23.83418225 312.02095002 26.80318435 312.013834 29.77265072 C312.01953609 31.90156062 312.02649972 34.03046746 312.03463173 36.15936947 C312.0525959 41.94239365 312.05138861 47.72526636 312.04568934 53.50831008 C312.04260225 58.33451403 312.0486846 63.16068868 312.05472809 67.98688847 C312.06878238 79.37139253 312.06720445 90.75582156 312.05582619 102.1403265 C312.0443434 113.88911161 312.05842142 125.6376685 312.08522266 137.38642353 C312.1073663 147.47062745 312.11402006 157.55475966 312.10814625 167.63898617 C312.10477237 173.66312884 312.10722048 179.68712519 312.12439728 185.71124744 C312.13984297 191.37562376 312.13593703 197.03966149 312.11709213 202.70402431 C312.11339972 204.78331912 312.11653364 206.86263889 312.12697792 208.94191074 C312.14014464 211.77975812 312.12867847 214.61647747 312.11098671 217.45427608 C312.12059172 218.27772422 312.13019672 219.10117235 312.14009279 219.94957346 C312.07240585 225.22394775 311.13221515 228.22332536 307.60978127 232.38031673 C306.62763224 233.54022751 306.62763224 233.54022751 305.62564182 234.72357082 C300.74450625 237.404995 295.83325965 236.92967758 290.35601234 236.8882513 C288.46935306 236.89761125 288.46935306 236.89761125 286.54457945 236.90716028 C283.05562991 236.92386582 279.56711776 236.915602 276.0781666 236.90321541 C272.3146115 236.89417202 268.55113205 236.90813115 264.78759193 236.91913509 C257.41543781 236.93693309 250.04344647 236.93307452 242.67128593 236.92148453 C236.67983305 236.91245481 230.68842582 236.91122421 224.69696808 236.9155798 C223.41836587 236.91649919 223.41836587 236.91649919 222.11393331 236.91743717 C220.38233935 236.91871606 218.65074541 236.92001291 216.91915148 236.92132753 C200.67689063 236.93273725 184.43472004 236.91961384 168.192474 236.89812607 C154.25478966 236.88025793 140.31723859 236.88335607 126.37955666 236.90180111 C110.19738569 236.92320644 94.01529389 236.9316352 77.83311075 236.91935205 C76.10754392 236.91807785 74.38197707 236.91682037 72.65641022 236.9155798 C71.80738347 236.91496269 70.95835672 236.91434559 70.08360188 236.91370979 C64.09960844 236.91025564 58.1156652 236.91608671 52.13167953 236.92549801 C44.83869832 236.93671577 37.54588933 236.93368283 30.25292785 236.91237503 C26.53163873 236.90186102 22.81063675 236.89774846 19.08934975 236.91097164 C15.05616102 236.92508636 11.02369755 236.90823553 6.99053383 236.8882513 C5.8130094 236.89717419 4.63548497 236.90609708 3.42227799 236.91529036 C-2.62826372 236.85694673 -6.77552461 236.74082946 -11.39021873 232.38031673 C-15.01896369 228.07138439 -14.81683113 223.91714796 -14.77789879 218.54329586 C-14.7859771 217.20791614 -14.7859771 217.20791614 -14.7942186 215.84555906 C-14.80852677 212.86229408 -14.80138736 209.87947102 -14.79427147 206.89618587 C-14.79997353 204.7574239 -14.80693715 202.61866497 -14.8150692 200.47991085 C-14.83303367 194.67002823 -14.83182603 188.86029637 -14.82612681 183.0503943 C-14.82303976 178.20182244 -14.82912202 173.35327975 -14.83516556 168.50471205 C-14.84921995 157.06747039 -14.84764184 145.63030341 -14.83626366 134.19306087 C-14.82478085 122.38974459 -14.8388589 110.58665547 -14.86566013 98.78336912 C-14.88780358 88.65245654 -14.89445758 78.52161533 -14.88858372 68.39068025 C-14.88520979 62.33859216 -14.88765826 56.28664972 -14.90483475 50.23458195 C-14.92028013 44.54394134 -14.91637485 38.85363777 -14.8975296 33.1630106 C-14.8938371 31.07404044 -14.89697136 28.98504545 -14.90741539 26.89609814 C-14.9205815 24.04511535 -14.90911645 21.1952555 -14.89142418 18.34432125 C-14.90102919 17.51698217 -14.91063419 16.68964309 -14.92053026 15.83723313 C-14.85330588 10.57504331 -13.96266323 7.49473373 -10.39021873 3.38031673 C-6.81132717 0.83403067 -4.37404345 0.00485647 0 0 Z M-4.39021873 11.38031673 C-4.58312592 13.77678393 -4.65083475 16.05714304 -4.63072777 18.45432186 C-4.63243662 19.19107014 -4.63414547 19.92781841 -4.6359061 20.68689239 C-4.63921383 23.16829395 -4.62817639 25.64942816 -4.61726952 28.13080502 C-4.61670568 29.90447642 -4.61702142 31.67814829 -4.61815453 33.45181942 C-4.61873011 38.27803394 -4.60694258 43.10414974 -4.59300661 47.93034124 C-4.58053347 52.96988492 -4.57933146 58.00943066 -4.5769558 63.04898739 C-4.57073095 72.59708748 -4.55430659 82.14514195 -4.53425682 91.69322193 C-4.511929 102.56125345 -4.50091224 113.42928712 -4.49086595 124.29733586 C-4.46994121 146.65835481 -4.43474578 169.01933322 -4.39021873 191.38031673 C0.49690554 189.75127531 3.26722101 185.8124692 6.48478127 181.94281673 C9.06882689 178.88049017 11.86824029 176.33818777 14.94571877 173.78266048 C18.14968005 171.08260861 20.98232173 168.18994194 23.54728127 164.88031673 C25.95892642 161.95711048 28.67707046 159.77436637 31.60978127 157.38031673 C34.29699102 154.82419038 36.70726591 152.26033564 39.04728127 149.38031673 C41.67729358 146.30127792 44.47228467 143.92953272 47.60978127 141.38031673 C50.29699102 138.82419038 52.70726591 136.26033564 55.04728127 133.38031673 C57.67729358 130.30127792 60.47228467 127.92953272 63.60978127 125.38031673 C66.10828902 123.00078554 68.38099871 120.67773405 70.48478127 117.94281673 C72.81862269 115.12847855 75.36781399 112.98263941 78.21915627 110.71234798 C78.67806252 110.27277767 79.13696877 109.83320736 79.60978127 109.38031673 C79.60978127 108.72031673 79.60978127 108.06031673 79.60978127 107.38031673 C84.60978127 112.38031673 84.60978127 112.38031673 86.98478127 114.81781673 C88.99985291 116.78491048 91.01499752 118.58181365 93.17228127 120.38031673 C96.0520601 122.81226819 98.30635518 125.38586282 100.60978127 128.38031673 C103.32469024 131.24197755 106.14938682 133.85477885 109.17228127 136.38031673 C112.0520601 138.81226819 114.30635518 141.38586282 116.60978127 144.38031673 C119.32469024 147.24197755 122.14938682 149.85477885 125.17228127 152.38031673 C128.0520601 154.81226819 130.30635518 157.38586282 132.60978127 160.38031673 C135.32469024 163.24197755 138.14938682 165.85477885 141.17228127 168.38031673 C144.05582077 170.81019593 146.26096266 173.42535139 148.60978127 176.38031673 C150.07664879 177.59207686 151.54447468 178.80295087 153.03165627 179.98969173 C155.35929695 182.04078105 157.24470803 184.41335985 159.21915627 186.79828548 C160.83092403 188.63189768 162.56821236 190.04544476 164.60978127 191.38031673 C168.82571057 189.73638298 171.6400074 186.61676287 174.75528908 183.4618597 C175.36059456 182.85684628 175.96590004 182.25183285 176.58954811 181.62848568 C178.58544576 179.63119674 180.57416926 177.62692115 182.56290627 175.62250423 C183.94680795 174.23487172 185.33115239 172.84768064 186.7159214 171.46091366 C190.35681346 167.81239073 193.99165904 164.15790121 197.62528419 160.50214291 C201.33523814 156.77171885 205.05087053 153.04696031 208.76603127 149.32172298 C216.0528547 142.01345927 223.33330391 134.69888058 230.60978127 127.38031673 C233.39332876 128.65160105 235.43560892 129.95831281 237.58968544 132.126441 C238.1490731 132.6845245 238.70846077 133.24260799 239.28479958 133.81760311 C240.18659447 134.7325404 240.18659447 134.7325404 241.10660744 135.66596127 C241.74932091 136.30998898 242.39203438 136.95401669 243.05422401 137.61756039 C245.17503469 139.74485643 247.2887849 141.87903232 249.40275002 144.01312923 C250.873865 145.49051386 252.3454958 146.96738501 253.81762123 148.44376278 C257.68975665 152.32919942 261.55628385 156.22016553 265.42124367 160.11273861 C271.61747166 166.35210097 277.82046427 172.58472098 284.02664566 178.81418133 C286.19892471 180.99672677 288.3677844 183.18262907 290.53634071 185.36887264 C291.85782642 186.69718189 293.17941977 188.02538407 294.50113869 189.35346127 C295.10840797 189.96746792 295.71567726 190.58147457 296.34134865 191.21408749 C297.7452963 192.62189753 299.17472563 194.00423045 300.60978127 195.38031673 C300.93978127 195.38031673 301.26978127 195.38031673 301.60978127 195.38031673 C301.65644553 171.42424707 301.69174271 147.4681842 301.71340561 123.51207829 C301.72373019 112.38952906 301.73781303 101.26700802 301.76066017 90.14447689 C301.78055795 80.45317023 301.7934891 70.76188399 301.79795825 61.07055748 C301.80057178 55.93628817 301.80673907 50.80207728 301.82124138 45.66782665 C301.8347683 40.83999514 301.83901387 36.01224636 301.83599663 31.1843977 C301.83654899 29.40819506 301.84055545 27.63198979 301.84819221 25.85580349 C301.85807709 23.43915819 301.85577402 21.02282927 301.8502903 18.60617733 C301.85611598 17.89606853 301.86194166 17.18595972 301.86794388 16.45433247 C301.94893913 12.47256719 301.94893913 12.47256719 299.60978127 9.38031673 C297.33401559 9.07698068 297.33401559 9.07698068 294.65282631 9.12863445 C293.59809215 9.12341896 292.54335798 9.11820346 291.45666218 9.11282992 C290.28878572 9.11729137 289.12090925 9.12175281 287.91764259 9.12634945 C286.0673468 9.12166948 286.0673468 9.12166948 284.17967129 9.11689496 C280.74469921 9.11027498 277.30994432 9.11268854 273.87498522 9.1188674 C270.1748716 9.12337612 266.47477753 9.11641601 262.77466774 9.11090755 C255.52179565 9.10199495 248.26896485 9.10394385 241.01609111 9.10973284 C235.1237032 9.114242 229.2313269 9.11486547 223.33893776 9.1126852 C222.50162709 9.11237874 221.66431642 9.11207227 220.8016327 9.11175652 C219.10087323 9.11111709 217.40011376 9.11046867 215.69935429 9.10981134 C199.73575954 9.10410257 183.77218772 9.11067449 167.80859673 9.12141207 C154.09875873 9.13034808 140.38895459 9.12879619 126.6791172 9.11957455 C110.77426247 9.10888155 94.86942787 9.10465194 78.96457005 9.11079907 C77.26992162 9.1114362 75.5752732 9.11206494 73.88062477 9.1126852 C72.62978992 9.11314803 72.62978992 9.11314803 71.35368568 9.11362021 C65.46554541 9.11535006 59.57741786 9.1124258 53.68927956 9.1077261 C46.51766365 9.10212802 39.34609154 9.103611 32.17448068 9.11428759 C28.51251262 9.11955883 24.85061771 9.12157649 21.18865013 9.11498928 C17.22636499 9.10796944 13.26420072 9.11632761 9.30191994 9.12634945 C8.13404347 9.12188801 6.96616701 9.11742656 5.76290035 9.11282992 C4.70816619 9.11804542 3.65343203 9.12326091 2.56673622 9.12863445 C1.19339512 9.12912151 1.19339512 9.12912151 -0.20769024 9.12961841 C-2.59963904 9.17520661 -2.59963904 9.17520661 -4.39021873 11.38031673 Z " fill="#818990" transform="translate(351.3902187347412,381.61968326568604)"/>
<path d="M0 0 C4.64099471 3.81592898 8.33124106 8.32182584 9.421875 14.3203125 C9.80603344 21.12845371 7.80064981 26.39851874 4 32 C0.21652665 36.22917047 -4.20654778 38.63396143 -9.83203125 39.37109375 C-16.94264409 39.52952156 -21.58550308 38.75898882 -27 34 C-31.50448504 29.37377212 -34.11388949 24.04586923 -34.4375 17.5625 C-34.18610931 11.63973544 -32.18387457 7.31609245 -28.12890625 3.015625 C-19.15188097 -5.19775919 -10.53718834 -6.17697248 0 0 Z " fill="#818990" transform="translate(554,434)"/>
<path d="M0 0 C1.32 0.66 2.64 1.32 4 2 C3.360625 2.474375 2.72125 2.94875 2.0625 3.4375 C0.11706694 4.83738726 0.11706694 4.83738726 -1 6 C-0.59070014 8.05396726 -0.59070014 8.05396726 0 10 C-0.7425 9.773125 -1.485 9.54625 -2.25 9.3125 C-5.05914993 8.70523302 -5.05914993 8.70523302 -7.3125 10.4375 C-7.869375 10.953125 -8.42625 11.46875 -9 12 C-9.66 11.67 -10.32 11.34 -11 11 C-7.37 7.37 -3.74 3.74 0 0 Z " fill="#888F93" transform="translate(582,508)"/>
<path d="M0 0 C0 3.23830467 -0.29194726 4.31591712 -2 7 C-4.4375 9.3125 -4.4375 9.3125 -7 11 C-7.99 10.67 -8.98 10.34 -10 10 C-6.7 6.7 -3.4 3.4 0 0 Z " fill="#8C9399" transform="translate(570,520)"/>
<path d="M0 0 C0 3.26229641 -0.21770324 4.32655486 -2 7 C-5.125 9.25 -5.125 9.25 -8 11 C-8.66 10.67 -9.32 10.34 -10 10 C-6.7 6.7 -3.4 3.4 0 0 Z " fill="#8C939A" transform="translate(546,544)"/>
<path d="M0 0 C1.33332095 2.6666419 0.67102033 4.16680303 0 7 C-2.64 7.66 -5.28 8.32 -8 9 C-7.04270084 7.87411986 -6.08412105 6.7493285 -5.125 5.625 C-4.59132813 4.99851562 -4.05765625 4.37203125 -3.5078125 3.7265625 C-2.38567993 2.44163349 -1.20628025 1.20628025 0 0 Z " fill="#8B9299" transform="translate(527,563)"/>
<path d="M0 0 C4 4.625 4 4.625 4 8 C2.68 7.67 1.36 7.34 0 7 C0.33 6.01 0.66 5.02 1 4 C0.34 4 -0.32 4 -1 4 C-0.67 2.68 -0.34 1.36 0 0 Z " fill="#E5E8EA" transform="translate(522,461)"/>
<path d="M0 0 C1.32 0.66 2.64 1.32 4 2 C3.05125 2.061875 2.1025 2.12375 1.125 2.1875 C-0.421875 2.5896875 -0.421875 2.5896875 -2 3 C-3.45291273 5.46255685 -3.45291273 5.46255685 -4 8 C-4.33 6.68 -4.66 5.36 -5 4 C-3.35 2.68 -1.7 1.36 0 0 Z " fill="#8B9096" transform="translate(344,383)"/>
<path d="M0 0 C0.33 0.66 0.66 1.32 1 2 C-1.47812494 5.45167403 -2.79606135 7.23163306 -7 8 C-6.02133662 6.85373678 -5.04205413 5.70800212 -4.0625 4.5625 C-3.51722656 3.92441406 -2.97195313 3.28632812 -2.41015625 2.62890625 C-1.63204305 1.73008851 -0.84063472 0.84063472 0 0 Z " fill="#8D949A" transform="translate(535,555)"/>
<path d="M0 0 C0.33 0.66 0.66 1.32 1 2 C-1.47812494 5.45167403 -2.79606135 7.23163306 -7 8 C-6.02133662 6.85373678 -5.04205413 5.70800212 -4.0625 4.5625 C-3.51722656 3.92441406 -2.97195313 3.28632812 -2.41015625 2.62890625 C-1.63204305 1.73008851 -0.84063472 0.84063472 0 0 Z " fill="#8E949B" transform="translate(559,531)"/>
</svg>
